<mxfile host="app.diagrams.net" modified="2023-10-20T16:46:32.160Z" agent="Mozilla/5.0 (Macintosh; Intel Mac OS X 10_15_7) AppleWebKit/537.36 (KHTML, like Gecko) Chrome/118.0.0.0 Safari/537.36" etag="9yD8bpMd9fLl9VPhLvfT" version="22.0.6" type="github">
  <diagram name="Page-1" id="sfeoYHmAmCR_aMxD1gwX">
    <mxGraphModel dx="1279" dy="856" grid="1" gridSize="10" guides="1" tooltips="1" connect="1" arrows="1" fold="1" page="1" pageScale="1" pageWidth="827" pageHeight="1169" math="0" shadow="0">
      <root>
        <mxCell id="0" />
        <mxCell id="1" parent="0" />
        <mxCell id="BJUlFUu9TTrbfjuwITtA-2" value="" style="rounded=0;whiteSpace=wrap;html=1;strokeWidth=0.2;" parent="1" vertex="1">
          <mxGeometry x="160" y="200" width="60" height="80" as="geometry" />
        </mxCell>
        <mxCell id="BJUlFUu9TTrbfjuwITtA-9" value="" style="rounded=0;whiteSpace=wrap;html=1;strokeWidth=0.2;" parent="1" vertex="1">
          <mxGeometry x="160" y="240" width="40" height="10" as="geometry" />
        </mxCell>
        <mxCell id="BJUlFUu9TTrbfjuwITtA-10" value="" style="rounded=0;whiteSpace=wrap;html=1;strokeWidth=0.2;" parent="1" vertex="1">
          <mxGeometry x="200" y="240" width="20" height="10" as="geometry" />
        </mxCell>
        <mxCell id="BJUlFUu9TTrbfjuwITtA-11" value="" style="rounded=0;whiteSpace=wrap;html=1;strokeWidth=0.2;" parent="1" vertex="1">
          <mxGeometry x="160" y="270" width="60" height="10" as="geometry" />
        </mxCell>
        <mxCell id="BJUlFUu9TTrbfjuwITtA-12" value="" style="rounded=0;whiteSpace=wrap;html=1;strokeWidth=0.2;" parent="1" vertex="1">
          <mxGeometry x="160" y="200" width="12" height="12" as="geometry" />
        </mxCell>
        <mxCell id="BJUlFUu9TTrbfjuwITtA-16" value="" style="rounded=0;whiteSpace=wrap;html=1;strokeWidth=0.2;" parent="1" vertex="1">
          <mxGeometry x="190" y="208" width="30" height="8" as="geometry" />
        </mxCell>
        <mxCell id="BJUlFUu9TTrbfjuwITtA-17" value="" style="rounded=0;whiteSpace=wrap;html=1;strokeWidth=0.2;" parent="1" vertex="1">
          <mxGeometry x="190" y="216" width="30" height="8" as="geometry" />
        </mxCell>
        <mxCell id="BJUlFUu9TTrbfjuwITtA-18" value="" style="rounded=0;whiteSpace=wrap;html=1;strokeWidth=0.2;" parent="1" vertex="1">
          <mxGeometry x="190" y="224" width="30" height="8" as="geometry" />
        </mxCell>
        <mxCell id="BJUlFUu9TTrbfjuwITtA-19" value="" style="rounded=0;whiteSpace=wrap;html=1;strokeWidth=0.2;" parent="1" vertex="1">
          <mxGeometry x="190" y="232" width="30" height="8" as="geometry" />
        </mxCell>
        <mxCell id="BJUlFUu9TTrbfjuwITtA-20" value="" style="shape=image;imageAspect=0;aspect=fixed;verticalLabelPosition=bottom;verticalAlign=top;image=data:image/png,iVBORw0KGgoAAAANSUhEUgAAB9YAAAX7CAYAAABt0lDiAAAAAXNSR0IArs4c6QAAAERlWElmTU0AKgAAAAgAAYdpAAQAAAABAAAAGgAAAAAAA6ABAAMAAAABAAEAAKACAAQAAAABAAAH1qADAAQAAAABAAAF+wAAAACaTAX/AABAAElEQVR4AezdS68mSXoX8IGuvngYezwMMxiNfEFYIJubERIWQkhsQV7AijU7BBt2/gJ8BQQrFogFS1Z8AyQkJDMII2GQMDJiECOr7fHM9Fy6Goj/OedfHfXWOVXnVL2XyHx/IUVnvpmRmU/8InuR9WTk+cIXFAIECBAgQIAAAQIECBAgQIAAAQIECBAgQIAAAQIECBAgQIAAAQIECBAgQIAAAQIECBAgQIAAAQIECBAgQIAAAQIECBAgQIAAAQIECBAgQIAAAQIECBAgQIAAAQIECBAgQIAAAQIECBAgQIAAAQIECBAgQIAAAQIECBAgQIAAAQIECBAgQIAAAQIECBAgQIAAAQIECBAgQIAAAQIECBAgQIAAAQIECBAgQIAAAQIECBAgQIAAAQIECBAgQIAAAQIECBAgQIAAAQIECBAgQIAAAQIECBAgQIAAAQIECBAgQIAAAQIECBAgQIAAAQIECBAgQIAAAQIECBAgQIAAAQIECBAgQIAAAQIECBAgQIAAAQIECBAgQIAAAQIECBAgQIAAAQIECBAgQIAAAQIECBAgQIAAAQIECBAgQIAAAQIECBAgQIAAAQIECBAgQIAAAQIECBAgQIAAAQIECBAgQIAAAQIECBAgQIAAAQIECBAgQIAAAQIECBAgQIAAAQIECBAgQIAAAQIECBAgQIAAAQIECBAgQIAAAQIECBAgQIAAAQIECBAgQIAAAQIECBAgQIAAAQIECBAgQIAAAQIECBAgQIAAAQIECBAgQIAAAQIECBAgQIAAAQIECBAgQIAAAQIECBAgQIAAAQIECBAgQIAAAQIECBAgQIAAAQIECBAgQIAAAQIECBAgQIAAAQIECBAgQIAAAQIECBAgQIAAAQIECBAgQIAAAQIECBAgQIAAAQIECBAgQIAAAQIECBAgQIAAAQIECBAgQIAAAQIECBAgQIAAAQIECBAgQIAAAQIECBAgQIAAAQIECBAgQIAAAQIECBAgQIAAAQIECBAgQIAAAQIECBAgQIAAAQIECBAgQIAAAQIECBAgQIAAAQIECBAgQIAAAQIECBAgQIAAAQIECBAgQIAAAQIECBAgQIAAAQIECBAgQIAAAQIECBAgQIAAAQIECBAgQIAAAQIECBAgQIAAAQIECBAgQIAAAQIECBAgQIAAAQIECBAgQIAAAQIECBAgQIAAAQIECBAgQIAAAQIECBAgQIAAAQIECBAgQIAAAQIECBAgQIAAAQIECBAgQIAAAQIECBAgQIAAAQIECBAgQIAAAQIECBAgQIAAAQIECBAgQIAAAQIECBAgQIAAAQIECBAgQIAAAQIECBAgQIAAAQIECBAgQIAAAQIECBAgQIAAAQIECBAgQIAAAQIECBAgQIAAAQIECBAgQIAAAQIECBAgQIAAAQIECBAgQIAAAQIECBAgQIAAAQIECBAgQIAAAQIECBAgQIAAAQIECBAgQIAAAQIECBAgQIAAAQIECBAgQIAAAQIECBAgQIAAAQIECBAgQIAAAQIECBAgQIAAAQIECBAgQIAAAQIECBAgQIAAAQIECBAgQIAAAQIECBAgQIAAAQIECBAgQIAAAQIECBAgQIAAAQIECBAgQIAAAQIECBAgQIAAAQIECBAgQIAAAQIECBAgQIAAAQIECBAgQIAAAQIECBAgQIAAAQIECBAgQIAAAQIECBAgQIAAAQIECBAgQIAAAQIECBAgQIAAAQIECBAgQIAAAQIECBAgQIAAAQIECBAgQIAAAQIECBAgQIAAAQIECBAgQIAAAQIECBAgQIAAAQIECBAgQIAAAQIECBAgQIAAAQIECBAgQIAAAQIECBAgQIAAAQIECBAgQIAAAQIECBAgQIAAAQIECBAgQIAAAQIECBAgQIAAAQIECBAgQIAAAQIECBAgQIAAAQIECBAgQIAAAQIECBAgQIAAAQIECBAgQIAAAQIECBAgQIAAAQIECBAgQIAAAQIECBAgQIAAAQIECBAgQIAAAQIECBAgQIAAAQIECBAgQIAAAQIECBAgQIAAAQIECBAgQIAAAQIECBAgQIAAAQIECBAgQIAAAQIECBAgQIAAAQIECBAgQIAAAQIECBAgQIAAAQIECBAgQIAAAQIECBAgQIAAAQIECBAgQIAAAQIECBAgQIAAAQIECBAgQIAAAQIECBAgQIAAAQIECBAgQIAAAQIECBAgQIAAAQIECBAgQIAAAQIECBAgQIAAAQIECBAgQIAAAQIECBAgQIAAAQIECBAgQIAAAQIECBAgQIAAAQIECBAgQIAAAQIECBAgQIAAAQIECBAgQIAAAQIECBAgQIAAAQIECBAgQIAAAQIECBAgQIAAAQIECBAgQIAAAQIECBAgQIAAAQIECBAgQIAAAQIECBAgQIAAAQIECBAgQIAAAQIECBAgQIAAAQIECBAgQIAAAQIECBAgQIAAAQIECBAgQIAAAQIECBAgQIAAAQIECBAgQIAAAQIECBAgQIAAAQIECBAgQIAAAQIECBAgQIAAAQIECBAgQIAAAQIECBAgQIAAAQIECBAgQIAAAQIECBAgQIAAAQIECBAgQIAAAQIECBAgQIAAAQIECBAgQIAAAQIECBAgQIAAAQIECBAgQIAAAQIECBAgQIAAAQIECBAgQIAAAQIECBAgQIAAAQIECBAgQIAAAQIECBAgQIAAAQIECBAgQIAAAQIECBAgQIAAAQIECBAgQIAAAQIECBAgQIAAAQIECBAgQIAAAQIECBAgQIAAAQIECBAgQIAAAQIECBAgQIAAAQIECBAgQIAAAQIECBAgQIAAAQIECBAgQIAAAQIECBAgQIAAAQIECBAgQIAAAQIECBAgQIAAAQIECBAgQIAAAQIECBAgQIAAAQIECBAgQIAAAQIECBAgQIAAAQIECBAgQIAAAQIECBAgQIAAAQIECBAgQIAAAQIECBAgQIAAAQIECBAgQIAAAQIECBAgQIAAAQIECBAgQIAAAQIECBAgQIAAAQIECBAgQIAAAQIECBAgQIAAAQIECBAgQIAAAQIECBAgQIAAAQIECBAgQIAAAQIECBAgQIAAAQIECBAgQIAAAQIECBAgQIAAAQIECBAgQIAAAQIECBAgQIAAAQIECBAgQIAAAQIECBAgQIAAAQIECBAgQIAAAQIECBAgQIAAAQIECBAgQIAAAQIECBAgQIAAAQIECBAgQIAAAQIECBAgQIAAAQIECBAgQIAAAQIECBAgQIAAAQIECBAgQIAAAQIECBAgQIAAAQIECBAgQIAAAQIECBAgQIAAAQIECBAgQIAAAQIECBAgQIAAAQIECBAgQIAAAQIECBAgQIAAAQIECBAgQIAAAQIECBAgQIAAAQIECBAgQIAAAQIECBAgQIAAAQIECBAgQIAAAQIECBAgQIAAAQIECBAgQIAAAQIECBAgQIAAAQIECBAgQIAAAQIECBAgQIAAAQIECBAgQIAAAQIECBAgQIAAAQIECBAgQIAAAQIECBAgQIAAAQIECBAgQIAAAQIECBAgQIAAAQIECBAgQIAAAQIECBAgQIAAAQIECBAgQIAAAQIECBAgQIAAAQIECBAgQIAAAQIECBAgQIAAAQIECBAgQIAAAQIECBAgQIAAAQIECBAgQIAAAQIECBAgQIAAAQIECBAgQIAAAQIECBAgQIAAAQIECBAgQIAAAQIECBAgQIAAAQIECBAgQIAAAQIECBAgQIAAAQIECBAgQIAAAQIECBAgQIAAAQIECBAgQIAAAQIECBAgQIAAAQIECBAgQIAAAQIECBAgQIAAAQIECBAgQIAAAQIECBAgQIAAAQIECBAgQIAAAQIECBAgQIAAAQIECBAgQIAAAQIECBAgQIAAAQIECBAgQIAAAQIECBAgQIAAAQIECBAgQIAAAQIECBAgQIAAAQIECBAgQIAAAQIECBAgQIAAAQIECBAgQIAAAQIECBAgQIAAAQIECBAgQIAAAQIECBAgQIAAAQIECBAgQIAAAQIECBAgQIAAAQIECBAgQIAAAQIECBAgQIAAAQIECBAgQIAAAQIECBAgQIAAAQIECBAgQIAAAQIECBAgQIAAAQIECBAgQIAAAQIECBAgQIAAAQIECBAgQIAAAQIECBAgQIAAAQIECBAgQIAAAQIECBAgQIAAAQIECBAgQIAAAQIECBAgQIAAAQIECBAgQIAAAQIECBAgQIAAAQIECBAgQIAAAQIECBAgQIAAAQIECBAgQIAAAQIECBAgQIAAAQIECBAgQIAAAQIECBAgQIAAAQIECBAgQIAAAQIECBAgQIAAAQIECBAgQIAAAQIECBAgQIAAAQIECBAgQIAAAQIECBAgQIAAAQIECBAgQIAAAQIECBAgQIAAAQIECBAgQIAAAQIECBAgQIAAAQIECBAgQIAAAQIECBAgQIAAAQIECBAgQIAAAQIECBAgQIAAAQIECBAgQIAAAQIECBAgQIAAAQIECBAgQIAAAQIECBAgQIAAAQIECBAgQIAAAQIECBAgQIAAAQIECBAgQIAAAQIECBAgQIAAAQIECBAgQIAAAQIECBAgQIAAAQIECBAgQIAAAQIECBAgQIAAAQIECBAgQIAAAQIECBAgQIAAAQIECBAgQIAAAQIECBAgQIAAAQIECBAgQIAAAQIECBAgQIAAAQIECBAgQIAAAQIECBAgQIAAAQIECBAgQIAAAQIECBAgQIAAAQIECBAgQIAAAQIECBAgQIAAAQIECBAgQIAAAQIECBAgQIAAAQIECBAgQIAAAQIECBAgQIAAAQIECBAgQIAAAQIECBAgQIAAAQIECBAgQIAAAQIECBAgQIAAAQIECBAgQIAAAQIECBAgQIAAAQIECBAgQIAAAQIECBAgQIAAAQIECBAgQIAAAQIECBAgQIAAAQIECBAgQIAAAQIECBAgQIAAAQIECBAgQIAAAQIECBAgQIAAAQIECBAgQIAAAQIECBAgQIAAAQIECBAgQIAAAQIECBAgQIAAAQIECBAgQIAAAQIECBAgQIAAAQIECBAgQIAAAQIECBAgQIAAAQIECBAgQIAAAQIECBAgQIAAAQIECBAgQIAAAQIECBAgQIAAAQIECBAgQIAAAQIECBAgQIAAAQIECBAgQIAAAQIECBAgQIAAAQIECBAgQIAAAQIECBAgQIAAAQIECBAgQIAAAQIECBAgQIAAAQIECBAgQIAAAQIECBAgQIAAAQIECBAgQIAAAQIECBAgQIAAAQIECBAgQIAAAQIECBAgQIAAAQIECBAgQIAAAQIECBAgQIAAAQIECBAgQIAAAQIECBAgQIAAAQIECBAgQIAAAQIECBAgQIAAAQIECBAgQIAAAQIECBAgQIAAAQIECBAgQIAAAQIECBAgQIAAAQIECBAgQIAAAQIECBAgQIAAAQIECBAgQIAAAQIECBAgQIAAAQIECBAgQIAAAQIECBAgQIAAAQIECBAgQIAAAQIECBAgQIAAAQIECBAgQIAAAQIECBAgQIAAAQIECBAgQIAAAQIECBAgQIAAAQIECBAgQIAAAQIECBAgQIAAAQIECBAgQIAAAQIECBAgQIAAAQIECBAgQIAAAQIECBAgQIAAAQIECBAgQIAAAQIECBAgQIAAAQIECBAgQIAAAQIECBAgQIAAAQIECBAgQIAAAQIECBAgQIAAAQIECBAgQIAAAQIECBAgQIAAAQIECBAgQIAAAQIECBAgQIAAAQIECBAgQIAAAQIECBAgQIAAAQIECBAgQIAAAQIECBAgQIAAAQIECBAgQIAAAQIECBAgQIAAAQIECBAgQIAAAQIECBAgQIAAAQIECBAgQIAAAQIECBAgQIAAAQIECBAgQIAAAQIECBAgQIAAAQIECBAgQIAAAQIECBAgQIAAAQIECBAgQIAAAQIECBAgQIAAAQIECBAgQIAAAQIECBAgQIAAAQIECBAgQIAAAQIECBAgQIAAAQIECBAgQIAAAQIECBAgQIAAAQIECBAgQIAAAQIECBAgQIAAAQIECBAgQIAAAQIECBAgQIAAAQIECBAgQIAAAQIECBAgQIAAAQIECBAgQIAAAQIECBAgQIAAAQIECBAgQIAAAQIECBAgQIAAAQIECBAgQIAAAQIECBAgQIAAAQIECBAgQIAAAQIECBAgQIAAAQIECBAgQIAAAQIECBAgQIAAAQIECBAgQIAAAQIECBAgQIAAAQIECBAgQIAAAQIECBAgQIAAAQIECBAgQIAAAQIECBAgQIAAAQIECBAgQIAAAQIECBAgQIAAAQIECBAgQIAAAQIECBAgQIAAAQIECBAgQIAAAQIECBAgQIAAAQIECBAgQIAAAQIECBAgQIAAAQIECBAgQIAAAQIECBAgQIAAAQIECBAgQIAAAQIECBAgQIAAAQIECBAgQIAAAQIECBAgQIAAAQIECBAgQIAAAQIECBAgQIAAAQIECBAgQIAAAQIECBAgQIAAAQIECBAgQIAAAQIECBAgQIAAAQIECBAgQIAAAQIECBAgQIAAAQIECBAgQIAAAQIECBAgQIAAAQIECBAgQIAAAQIECBAgQIAAAQIECBAgQIAAAQIECBAgQIAAAQIECBAgQIAAAQIECBAgQIAAAQIECBAgQIAAAQIECBAgQIAAAQIECBAgQIAAAQIECBAgQIAAAQIECBAgQIAAAQIECBAgQIAAAQIECBAgQIAAAQIECBAgQIAAAQIECBAgQIAAAQIECBAgQIAAAQIECBAgQIAAAQIECBAgQIAAAQIECBAgQIAAAQIECBAgQIAAAQIECBAgQIAAAQIECBAgQIAAAQIECBAgQIAAAQIECBAgQIAAAQIECBAgQIAAAQIECBAgQIAAAQIECBAgQIAAAQIECBAgQIAAAQIECBAgQIAAAQIECBAgQIAAAQIECBAgQIAAAQIECBAgQIAAAQIECBAgQIAAAQIECBAgQIAAAQIECBAgQIAAAQIECBAgQIAAAQIECBAgQIAAAQIECBAgQIAAAQIECBAgQIAAAQIECBAgQIAAAQIECBAgQIAAAQIECBAgQIAAAQIECBAgQIAAAQIECBAgQIAAAQIECBAgQIAAAQIECBAgQIAAAQIECBAgQIAAAQIECBAgQIAAAQIECBAgQIAAAQIECBAgQIAAAQIECBAgQIAAAQIECBAgQIAAAQIECBAgQIAAAQIECBAgQIAAAQIECBAgQIAAAQIECBAgQIAAAQIECBAgQIAAAQIECBAgQIAAAQIECBAgQIAAAQIECBAgQIAAAQIECBAgQIAAAQIECBAgQIAAAQIECBAgQIAAAQIECBAgQIAAAQIECBAgQIAAAQIECBAgQIAAAQIECBAgQIAAAQIECBAgQIAAAQIECBAgQIAAAQIECBAgQIAAAQIECBAgQIAAAQIECBAgQIAAAQIECBAgQIAAAQIECBAgQIAAAQIECBAgQIAAAQIECBAgQIAAAQIECBAgQIAAAQIECBAgQIAAAQIECBAgQIAAAQIECBAgQIAAAQIECBAgQIAAAQIECBAgQIAAAQIECBAgQIAAAQIECBAgQIAAAQIECBAgQIAAAQIECBAgQIAAAQIECBAgQIAAAQIECBAgQIAAAQIECBAgQIAAAQIECBAgQIAAAQIECBAgQIAAAQIECBAgQIAAAQIECBAgQIAAAQIECBAgQIAAAQIECBAgQIAAAQIECBAgQIAAAQIECBAgQIAAAQIECBAgQIAAAQIECBAgQIAAAQIECBAgQIAAAQIECBAgQIAAAQIECBAgQIAAAQIECBAgQIAAAQIECBAgQIAAAQIECBAgQIAAAQIECBAgQIAAAQIECBAgQIAAAQIECBAgQIAAAQIECBAgQIAAAQIECBAgQIAAAQIECBAgQIAAAQIECBAgQIAAAQIECBAgQIAAAQIECBAgQIAAAQIECBAgQIAAAQIECBAgQIAAAQIECBAgQIAAAQIECBAgQIAAAQIECBAgQIAAAQIECBAgQIAAAQIECBAgQIAAAQIECBAgQIAAAQIECBAgQIAAAQIECBAgQIAAAQIECBAgQIAAAQIECBAgQIAAAQIECBAgQIAAAQIECBAgQIAAAQIECBAgQIAAAQIECBAgQIAAAQIECBAgQIAAAQIECBAgQIAAAQIECBAgQIAAAQIECBAgQIAAAQIECBAgQIAAAQIECBAgQIAAAQIECBAgQIAAAQIECBAgQIAAAQIECBAgQIAAAQIECBAgQIAAAQIECBAgQIAAAQIECBAgQIAAAQIECBAgQIAAAQIECBAgQIAAAQIECBAgQIAAAQIECBAgQIAAAQIECBAgQIAAAQIECBAgQIAAAQIECBAgQIAAAQIECBAgQIAAAQIECBAgQIAAAQIECBAgQIAAAQIECBAgQIAAAQIECBAgQIAAAQIECBAgQIAAAQIECBAgQIAAAQIECBAgQIAAAQIECBAgQIAAAQIECBAgQIAAAQIECBAgQIAAAQIECBAgQIAAAQIECBAgQIAAAQIECBAgQIAAAQIECBAgQIAAAQIECBAgQIAAAQIECBAgQIAAAQIECBAgQIAAAQIECBAgQIAAAQIECBAgQIAAAQIECBAgQIAAAQIECBAgQIAAAQIECBAgQIAAAQIECBAgQIAAAQIECBAgQIAAAQIECBAgQIAAAQIECBAgQIAAAQIECBAgQIAAAQIECBAgQIAAAQIECBAgQIAAAQIECBAgQIAAAQIECBAgQIAAAQIECBAgQIAAAQIECBAgQIAAAQIECBAgQIAAAQIECBAgQIAAAQIECBAgQIAAAQIECBAgQIAAAQIECBAgQIAAAQIECBAgQIAAAQIECBAgQIAAAQIECBAgQIAAAQIECBAgQIAAAQIECBAgQIAAAQIECBAgQIAAAQIECBAgQIAAAQIECBAgQIAAAQIECBAgQIAAAQIECBAgQIAAAQIECBAgQIAAAQIECBAgQIAAAQIECBAgQIAAAQIECBAgQIAAAQIECBAgQIAAAQIECBAgQIAAAQIECBAgQIAAAQIECBAgQIAAAQIECBAgQIAAAQIECBAgQIAAAQIECBAgQIAAAQIECBAgQIAAAQIECBAgQIAAAQIECBAgQIAAAQIECBAgQIAAAQIECBAgQIAAAQIECBAgQIAAAQIECBAgQIAAAQIECBAgQIAAAQIECBAgQIAAAQIECBAgQIAAAQIECBAgQIAAAQIECBAgQIAAAQIECBAgQIAAAQIECBAgQIAAAQIECBAgQIAAAQIECBAgQIAAAQIECBAgQIAAAQIECBAgQIAAAQIECBAgQIAAAQIECBAgQIAAAQIECBAgQIAAAQIECBAgQIAAAQIECBAgQIAAAQIECBAgQIAAAQIECBAgQIAAAQIECBAgQIAAAQIECBAgQIAAAQIECBAgQIAAAQIECBAgQIAAAQIECBAgQIAAAQIECBAgQIAAAQIECBAgQIAAAQIECBAgQIAAAQIECBAgQIAAAQIECBAgQIAAAQIECBAgQIAAAQIECBAgQIAAAQIECBAgQIAAAQIECBAgQIAAAQIECBAgQIAAAQIECBAgQIAAAQIECBAgQIAAAQIECBAgQIAAAQIECBAgQIAAAQIECBAgQIAAAQIECBAgQIAAAQIECBAgQIAAAQIECBAgQIAAAQIECBAgQIAAAQIECBAgQIAAAQIECBAgQIAAAQIECBAgQIAAAQIECBAgQIAAAQIECBAgQIAAAQIECBAgQIAAAQIECBAgQIAAAQIECBAgQIAAAQIECBAgQIAAAQIECBAgQIAAAQIECBAgQIAAAQIECBAgQIAAAQIECBAgQIAAAQIECBAgQIAAAQIECBAgQIAAAQIECBAgQIAAAQIECBAgQIAAAQIECBAgQIAAAQIECBAgQIAAAQIECBAgQIAAAQIECBAgQIAAAQIECBAgQIAAAQIECBAgQIAAAQIECBAgQIAAAQIECBAgQIAAAQIECBAgQIAAAQIECBAgQIAAAQIECBAgQIAAAQIECBAgQIAAAQIECBAgQIAAAQIECBAgQIAAAQIECBAgQIAAAQIECBAgQIAAAQIECBAgQIAAAQIECBAgQIAAAQIECBAgQIAAAQIECBAgQIAAAQIECBAgQIAAAQIECBAgQIAAAQIECBAgQIAAAQIECBAgQIAAAQIECBAgQIAAAQIECBAgQIAAAQIECBAgQIAAAQIECBAgQIAAAQIECBAgQIAAAQIECBAgQIAAAQIECBAgQIAAAQIECBAgQIAAAQIECBAgQIAAAQIECBAgQIAAAQIECBAgQIAAAQIECBAgQIAAAQIECBAgQIAAAQIECBAgQIAAAQIECBAgQIAAAQIECBAgQIAAAQIECBAgQIAAAQIECBAgQIAAAQIECBAgQIAAAQIECBAgQIAAAQIECBAgQIAAAQIECBAgQIAAAQIECBAgQIAAAQIECBAgQIAAAQIECBAgQIAAAQIECBAgQIAAAQIECBAgQIAAAQIECBAgQIAAAQIECBAgQIAAAQIECBAgQIAAAQIECBAgQIAAAQIECBAgQIAAAQIECBAgQIAAAQIECBAgQIAAAQIECBAgQIAAAQIECBAgQIAAAQIECBAgQIAAAQIECBAgQIAAAQIECBAgQIAAAQIECBAgQIAAAQIECBAgQIAAAQIECBAgQIAAAQIECBAgQIAAAQIECBAgQIAAAQIECBAgQIAAAQIECBAgQIAAAQIECBAgQIAAAQIECBAgQIAAAQIECBAgQIAAAQIECBAgQIAAAQIECBAgQIAAAQIECBAgQIAAAQIECBAgQIAAAQIECBAgQIAAAQIECBAgQIAAAQIECBAgQIAAAQIECBAgQIAAAQIE9izwh/bcOX0jQIAAAQIECBAgQIDAWwr84XHch6M+G/X/3dWxuFnPMqXPU1mmTcu8/qY23Z9j5/Pcd47HtmkcWeY8Pe98rcM2/d02Pabb74vnoTY9R4+dlz3P3GY+T/fnmLnN4Tl6zOva9Ji26THdft+1HmrTc/TYednzzG3m83R/jnlMm7R/flfnY3O8QoAAAQIECBAgQIAAAQIECFxIIP9IpBAgQIAAAQIECBAgQIDA5wJJfn5t1F8b9RdG/f6oPxw15bNRsz+J9/97txyLmwR8kqEp2Z7SNu+N9SRIc1xq9s9t0i772ybX6LFj9WY9yzy/zddomxyXffmd+umoKdme6/S4xt3nwJ6rfUrbnmOsvjgu62nbfTlv1htvlin39SnnTv/v63eOaWxZ7/WzzDlzXEqWOU9Ktmd/j1uxT4mpNol17nvtG//YfdOf9r3HfXNs/41Rv5cGCgECBAgQIECAAAECBAgQIHB5gT7UXz4SERAgQIAAAQIECBAgQGANgSRyf2nUfzjq10f9eNQfjZpkchKgKfN6fid5mtLEaJYt874mpLs/+5p4ndvNx/ac2dbjsj7H8MH4/dGoSYB/Mup8rqzPx837eo5eY943r49T3JS2v29fts3nqVUOnPs9t8u+Obaev8f0HGmTfSm9xnzcHE/P0Xbzvnn99myfO963L9vm8zSeHHtfn3rO+VyN5759c7vsz72XcfzNUf/x3XK+5tikECBAgAABAgQIECBAgAABApcQkFi/hLprEiBAgAABAgQIECCwusBPjgDfHzUz1f/zqL83akpmg88zqbstydMkSTv7u+s5RxOrSZBmPcnvOaGa57Lua9teJ0nd1Fwzy7TLOVPmWdw/N37/8qjfHfU/3e1L+x+PmvY5X5bZ1uNyzsSRfb1uEvTZluOyrf3Idfv82OOyLTUly7RNbdvuG5te9DvnTAypr+tTYjyMN7Gt3qf0LyXL9rXenfU/93vuU7Z/edRfGfVnR/3qqDnH7Dh+KgQIECBAgAABAgQIECBAgMAlBPoPI5e4tmsSIECAAAECBAgQIEBgVYF8gvs7o/6fUf/5qEmuJ0GaxG5LkshzaVI5y7ZrcrUJ0raZj3tdm56rbebjeo0kZ//WqN8Y9bdH/WejfmvUJGTbZqy+SHx3W8/d3w+1OUzsNpb2KcflHD1ffrdNt2XZ83Rb26R9y5tiyf5jtGksvW5jedc+pW8pPc/c79s9n9vkdy3SpxzzZ0f99VE/HLXnGqsKAQIECBAgQIAAAQIECBAgcGkBifVLj4DrEyBAgAABAgQIECCwokCSmkmkZzZ3Zqt/++73WCxX8unwzKxPcjYJ48SbFwLmBPT4qSwukBnreZmjM9yN3+IDJjwCBAgQIECAAAECBAgQuC4BifXrGm+9JUCAAAECBAgQIEDgzQJJaCbJmdJZw9m2aqKzs68bY2fWrxrvDaz/vCKQ8cpY9p7LDHaFAAECBAgQIECAAAECBAgQWETAg/oiAyEMAgQIECBAgAABAgSWEUhiM38Pu4nOZQJ7TSBNxiap7jnvNVCL78rYZQyTYE/1csRAUAgQIECAAAECBAgQIECAwAoC/sFlhVEQAwECBAgQIECAAAECqwlkxnqS1Z25vlp8czzziwCNt4n2uZ31bQh0DPO8bhy3MWaiJECAAAECBAgQIECAAIErEJBYv4JB1kUCBAgQIECAAAECBJ4kkFnCnTW8lRnD74+YJWKfNMzLNu7n4LNUCBAgQIAAAQIECBAgQIAAgUUEJNYXGQhhECBAgAABAgQIECCwjEBmCedZKbUJ9mWCuyeQvgiQXYk9dSsvBCRm5WWBviDxbGw2ji/b+EWAAAECBAgQIECAAAECBC4mILF+MXoXJkCAAAECBAgQIEBgYYEk1JPUbJJ65QRnY+wM55VjXXjIlwgtY9dxzD2YsVUIECBAgAABAgQIECBAgACBBQQk1hcYBCEQIECAAAECBAgQILCcwPystIXkZmJMzE3KLgcqoDcKJKme2vvNWL6RTAMCBAgQIECAAAECBAgQIHA+gfkfi853VVciQIAAAQIECBAgQIDA2gJJbr53F2KWTXauGnU/WZ9krITsqqP05rjyjJ57LTWfglcIECBAgAABAgQIECBAgACBRQQk1hcZCGEQIECAAAECBAgQILCUQGYOP7+LaAuJ6ib+8xKA57ylbqUnBZN7rTPXe/896QQaEyBAgAABAgQIECBAgAABAqcR8A8up3F1VgIECBAgQIAAAQIEtiuQxGaelVK3MFs98XZ2fda38CLACFM5EOjLEU2s9/dBMz8JECBAgAABAgQIECBAgACBSwhIrF9C3TUJECBAgAABAgQIEFhZIAnNfFo9yzlpvWrMibMvAiSpnnVJ2VVH6/VxZeyaWE/LrCsECBAgQIAAAQIECBAgQIDAAgIS6wsMghAIECBAgAABAgQIEFhKoMn0fIq7SfalArwnmE/HtiTV3x/Vc949QBvalL+tnvtuC19L2BCrUAkQIECAAAECBAgQIECAwLsJ+AeXd/NzNAECBAgQIECAAAEC+xTojPWtfFY9CfWUJthvf/kvAQIECBAgQIAAAQIECBAgQIDAUQQk1o/C6CQECBAgQIAAAQIECOxIoJ9Wz4zhJNZX/xx34usn4JtgXz3mHd0uR+9KXurI+HV59As4IQECBAgQIECAAAECBAgQIPB0AYn1p5s5ggABAgQIECBAgACB/Qs0Mb2F5HpeBOgLAI17/yO0zx72BYk8q6dmbBUCBAgQIECAAAECBAgQIEBgAQGJ9QUGQQgECBAgQIAAAQIECCwpkCR1Ep1bSG42se5T8EveSo8Kqi9FdJkZ6woBAgQIECBAgAABAgQIECCwiIDE+iIDIQwCBAgQIECAAAECBJYSSDI9NUnOri8VoGB2K9CXJLbwQsduB0HHCBAgQIAAAQIECBAgQIDAoYDE+qGI3wQIECBAgAABAgQIEPj80+rPBsYWnpsSYxKx+RvrW4h3hKk8INAXOTpz/YFmNhMgQIAAAQIECBAgQIAAAQLnFPAPLufUdi0CBAgQIECAAAECBLYgkIRm/rZ6P8W9eoIz8TWxbpbzFu6w+2NsQr17Pa9XwpIAAQIECBAgQIAAAQIECCwg4EF9gUEQAgECBAgQIECAAAECSwkkwZmkepLrW/gb64k3z3aJNX9jPUWC/dZha//tWCbu3H+rv9SxNV/xEiBAgAABAgQIECBAgACBtxaQWH9rOgcSIECAAAECBAgQILBTgXnGep6ZtpDcbELdp+C3f1P2b6w/H13xgsT2x1MPCBAgQIAAAQIECBAgQGAnAhLrOxlI3SBAgAABAgQIECBA4GgCSWZ2xnpOuoXkZhPqSbAnMatsVyAz1XPPZakQIECAAAECBAgQIECAAAECiwhIrC8yEMIgQIAAAQIECBAgQGApgTwrJbmZWcOrJ6ozoz4xpibuLLcwy36Eqdwj0PHMyx3G8R4gmwgQIECAAAECBAgQIECAwCUEJNYvoe6aBAgQIECAAAECBAisLpCEZmqS611fNebEmCRsStY9591QbPI/eSkiY5kxTM14KgQIECBAgAABAgQIECBAgMACAv7BZYFBEAIBAgQIECBAgAABAksKNEm9hVnDjTFJ2SRnle0J9AWO3HdZ78sS2+uJiAkQIECAAAECBAgQIECAwA4FJNZ3OKi6RIAAAQIECBAgQIDAOwt0pnBnD/f3O5/4RCfI3+PuLGfPeSdCPsNp5/vMOJ4B3CUIECBAgAABAgQIECBAgMBjBTyoP1ZKOwIECBAgQIAAAQIErkUgs4XnT3LPyc5VDRqzZ7xVR+jNceU+ywsSKVlu4b67CdZ/CBAgQIAAAQIECBAgQIDANQg8u4ZO6iMBAgQIECBAgAABAgSeKJDEZpLVSVSnNuE5Vm9K9qU8lPzs/mO1eeg6OX9jbFL9dW3TXllXoJ/xfz5CnO+hdSMWGQECBAgQIECAAAECBAgQuBIBifUrGWjdJECAAAECBAgQIEDg0QJJTCep+dGoH4z6S6Mmsf7pqNmeBHY+EZ/1tG1Ce6zelGxPncthmyZQsz3rOc9hQrxtcp5cv7/ndrnO+6P+wqgfjtoXANLmMIaxSVlcIOOWMcx9kWoMB4JCgAABAgQIECBAgAABAgRWEJBYX2EUxECAAAECBAgQIECAwEoCSWZ+cdSfHvUro/79Uf9g1JQk1OeStkmEJiHav8feBHj2JTmafdnWpHdmI2dba9q1bdrlmJwr7btvrN6U7Ou5si/tkvz/6qhfG/V/jpo2yjYFOua9n7JUCBAgQIAAAQIECBAgQIAAgQUEJNYXGAQhECBAgAABAgQIECCwlECTmU2KJ9mZRHsS2ql5jmqCPW2bDE+iu8eO1ZukeH+nTdeTCM96a45rmRPpTZBnW2LIjPkek2XOme1pl1nr+f39URPbfM7xU9mIQMYuY5uXL5pk30jowiRAgAABAgQIECBAgAABAvsWkFjf9/jqHQECBAgQIECAAAECbyfww3HYd0b9eNR/OepvjdpkdpZJXDex3WWSok26Z1vbJUHaNmP1RVI+50j7JFGTHE+7rqd9tvU8PVdjSNtcL22y7Ruj/rlR/8OovzuqxPpA2GjpmGd8FQIECBAgQIAAAQIECBAgQGARAYn1RQZCGAQIECBAgAABAgQILCWQpOYPRv1k1H8/6n8cNduSxD4sSWJ3+7w+t5u3z+vHaJNrZ8b6vxn1R6Nm1rqyTYHcG30Joy9NbLMnoiZAgAABAgQIECBAgAABAjsTkFjf2YDqDgECBAgQIECAAAECRxFIcrMls8hT523dt8oyn4nPSwDKdgXmpHp6kd8KAQIECBAgQIAAAQIECBAgsIhA3oBXCBAgQIAAAQIECBAgQOBlgXxqPTPBO7u8M9JfbuUXgeMK5D7LCxyS6sd1dTYCBAgQIECAAAECBAgQIPDOAhLr70zoBAQIECBAgAABAgQI7EygM4fnT3LvrIu6s6BAkupe5lhwYIREgAABAgQIECBAgAABAgQiILHuPiBAgAABAgQIECBAgMDLAkluZsa6v3H9sotfpxfIPZc/2daXO05/RVcgQIAAAQIECBAgQIAAAQIEHiUgsf4oJo0IECBAgAABAgQIELgygc9Gf5PczFIhcC6BfgI+911e7ujvc13fdQgQIECAAAECBAgQIECAAIEHBCTWH4CxmQABAgQIECBAgACBqxVIMjOzhjNz3TPT1d4GF+l47rn+CYIk1/NbIUCAAAECBAgQIECAAAECBBYQ8I9ECwyCEAgQIECAAAECBAgQWEogyczOVE+S06zhpYZn18HkXstzuhnrux5mnSNAgAABAgQIECBAgACBLQpIrG9x1MRMgAABAgQIECBAgMCpBZJQb0myU3K9GpanFOgM9XwG3oz1U0o7NwECBAgQIECAAAECBAgQeKKAxPoTwTQnQIAAAQIECBAgQOAqBJLglFC/iqFeqpN5oeP5qLn/PK8vNTSCIUCAAAECBAgQIECAAIFrF/Cgfu13gP4TIECAAAECBAgQIHCfQJLqkpv3ydh2KoG+yOGljlMJOy8BAgQIECBAgAABAgQIEHgHAYn1d8BzKAECBAgQIECAAAECuxXIp7hTkuRM6fL2l/8SOI1Akut5Tne/ncbXWQkQIECAAAECBAgQIECAwFsLSKy/NZ0DCRAgQIAAAQIECBDYqUCSm/kkd6vnpp0O9GLdSjI991r+tnqK5Pqtg/8SIECAAAECBAgQIECAAIElBPwD0RLDIAgCBAgQIECAAAECBBYSSEIzM9a7XCg0oexcYE6u58WOvOShECBAgAABAgQIECBAgAABAgsISKwvMAhCIECAAAECBAgQIECAAAECdwJ5Tk9CvX+OAAwBAgQIECBAgAABAgQIECCwgIDE+gKDIAQCBAgQIECAAAECBJYSSFIzn+PO8vlSkQlm7wJJpue+ezZq7kGfgx8ICgECBAgQIECAAAECBAgQWEFAYn2FURADAQIECBAgQIAAAQIrCTSZmWVqPsmtEDiHQJPpnbGepUKAAAECBAgQIECAAAECBAgsICCxvsAgCIEAAQIECBAgQIAAgeUEktBsYj3BSXAuN0S7DCj3WZLreZkjtS95jNXNlfx7w5bj3xy4gAkQIECAAAECBAgQIEDgtAIS66f1dXYCBAgQIECAAAECBLYpkE9xN7HuuWmbY7jFqHuv9f7bYh8S80ej/slR/8So6YtCgAABAgQIECBAgAABAgQ2L9CH9s13RAcIECBAgAABAgQIECBwRIH8bfXMHk71KfgjwjrVgwKdrZ4GmbWe31ss+XeGb4z6t0f9m6N+eVQz1weCQoAAAQIECBAgQIAAAQLbFpBY3/b4iZ4AAQIECBAgQIAAgdMI9Fkpyc3OXD/NlZyVwOcCczJ9qy90pA8/GPX3R/141C2/JDDCVwgQIECAAAECBAgQIECAwK2AT7K5EwgQIECAAAECBAgQIPCyQBKD791tSoLdbNuXffw6jUBf4OjLHL0HT3O105018X971H89apLq3x1VIUCAAAECBAgQIECAAAECmxeQWN/8EOoAAQIECBAgQIAAAQJHFkiCs5+C3+qs4SOTON2ZBPIiRxLque9Sk6TeYsn/P5mtvtX4t2guZgIECBAgQIAAAQIECBA4sUA/b3jiyzg9AQIECBAgQIAAAQIENiWQ5GYS7FudNbwpbMG+JJD7rgn2rG+1SKpvdeTETYAAAQIECBAgQIAAAQL3Ckis38tiIwECBAgQIECAAAECVyyQhGA+Yb3lGcNXPHyb73r/JnmWCgECBAgQIECAAAECBAgQILCIgMT6IgMhDAIECBAgQIAAAQIElhHojOE8LzXBvkxwAtm9QO673IP5021mfe9+uHWQAAECBAgQIECAAAECBLYiILG+lZESJwECBAgQIECAAAEC5xTorOEkOJPclOA8p/71Xiv3Wb6UkJJ7cMufgr/phP8QIECAAAECBAgQIECAAIG9CEis72Uk9YMAAQIECBAgQIAAgWMKzM9KkpvHlHWuhwT6AkfvtybYH2pvOwECBAgQIECAAAECBAgQIHBGgfkfi854WZciQIAAAQIECBAgQIDA0gJJbr53F2GWTXYuHbTgNi+QZ/Tca6n5FLxCgAABAgQIECBAgAABAgQILCIgsb7IQAiDAAECBAgQIECAAIGlBDJ7+PldRGYOLzU0uw4m91pnrvf+23WHdY4AAQIECBAgQIAAAQIECGxFQGJ9KyMlTgIECBAgQIAAAQIEziWQxGaelVLNVj+Xuuv0qwhNrPc3GQIECBAgQIAAAQIECBAgQGABAYn1BQZBCAQIECBAgAABAgQILCWQhOZno2aZJGc/CT9WFQInFcgzehPruVDWFQIECBAgQIAAAQIECBAgQGABAYn1BQZBCAQIECBAgAABAgQILCXQZHo+xd0k+1IBCmbXAvnb6rnvfC1h18OscwQIECBAgAABAgQIECCwNQGJ9a2NmHgJECBAgAABAgQIEDiHQGes+/vq59B2DQIECBAgQIAAAQIECBAgQIDA4gIS64sPkPAIECBAgAABAgQIEDi7QGYL51kpM4aTWPc57oGgnE0gL3XknuvybBd2IQIECBAgQIAAAQIECBAgQOBhAYn1h23sIUCAAAECBAgQIEDgegWaTJdcv9574BI9z4sceU5vzUseCgECBAgQIECAAAECBAgQILCAgMT6AoMgBAIECBAgQIAAAQIElhRIcj2JTsnNJYdnd0H1ZY4uM2NdIUCAAAECBAgQIECAAAECBBYRkFhfZCCEQYAAAQIECBAgQIDAUgJJpqcmydn1pQIUzG4F+ucHvNCx2yHWMQIECBAgQIAAAQIECBDYooDE+hZHTcwECBAgQIAAAQIECJxaoMnNZ+NCnptOre38s0Bf5OjM9XmfdQIECBAgQIAAAQIECBAgQOBCAv6B6ELwLkuAAAECBAgQIECAwLICSWjmb6v3U9wSnMsO1a4Ca0K9nfK8XglLAgQIECBAgAABAgQIECCwgIAH9QUGQQgECBAgQIAAAQIECCwlkARnkupJrvsb60sNze6Dyb3X5/Tcf17q2P2Q6yABAgQIECBAgAABAgQIbEWgD+xbiVecBAgQIECAAAECBAgQOLXAPGM9z0ySm6cWd/5ZoH+G4PnYmES7QoAAAQIECBAgQIAAAQIECCwgILG+wCAIgQABAgQIECBAgACBpQTmGesJTHJzqeHZfTCZqZ57LkuFAAECBAgQIECAAAECBAgQWERAYn2RgRAGAQIECBAgQIAAAQJLCeRZKcnNzBrODGKFwLkE8oWE3HP5cwS+lnAuddchQIAAAQIECBAgQIAAAQJvEJBYfwOQ3QQIECBAgAABAgQIXKVAEpqpSa53/SohdPqsAk2o51m9L3ecNQAXI0CAAAECBAgQIECAAAECBO4XkFi/38VWAgQIECBAgAABAgQIJKmeZyazht0L5xDoCxx9mSMz1hUCBAgQIECAAAECBAgQIEBgEQGJ9UUGQhgECBAgQIAAAQIECCwlkORmSpKbZg7fUPjPGQR63+VSntfPAO4SBAgQIECAAAECBAgQIEDgsQIe1B8rpR0BAgQIECBAgAABAtcikJnD8ye552TntRjo5/kFcp+9d3fZLN135x8DVyRAgAABAgQIECBAgAABAg8KSKw/SGMHAQIECBAgQIAAAQJXLJDEZhLsnpmu+Ca4QNfzQkfK81H9CYIbCv8hQIAAAQIECBAgQIAAAQJrCPhHojXGQRQECBAgQIAAAQIECKwjkJnC+QT8s1GT3Ows4rGqEDipQGet51k9VXL9pNxOToAAAQIECBAgQIAAAQIEHi8gsf54Ky0JECBAgAABAgQIELgOgSbTs2yS/Tp6rpeXFuiXEnrfZakQIECAAAECBAgQIECAAAECCwhIrC8wCEIgQIAAAQIECBAgQGApgSQz80nu/p11s4aXGp5dB5MvJeT+y6fgm2TfdYd1jgABAgQIECBAgAABAgQIbEVAYn0rIyVOAgQIECBAgAABAgTOKZDkZj4Fn+K56dbBf88jkBc6cv8lya4QIECAAAECBAgQIECAAAECiwj4B6JFBkIYBAgQIECAAAECBAgsJZBZ6k1sZmnW+lLDs9tgcp8lsZ7Z6nleT4JdIUCAAAECBAgQIECAAAECBBYQkFhfYBCEQIAAAQIECBAgQIDAcgJJbrZIqlfC8pQCc1I913HfnVLbuQkQIECAAAECBAgQIECAwBMFJNafCKY5AQIECBAgQIAAAQJXIZAZw5ktnORmlmYODwTl5AK5z/JSh6T6yaldgAABAgQIECBAgAABAgQIPE1AYv1pXloTIECAAAECBAgQILB/gc4cnj/Jvf9e6+GlBfoCh5c5Lj0Srk+AAAECBAgQIECAAAECBO4RkFi/B8UmAgQIECBAgAABAgSuWiAJTn/j+qpvgYt1Ps/oz0btyx0XC8SFCRAgQIAAAQIECBAgQIAAgZcFJNZf9vCLAAECBAgQIECAAAECEfhs1CQ3s1QInEsg91xK7ru83NHf2aYQIECAAAECBAgQIECAAAECFxSQWL8gvksTIECAAAECBAgQILCkQJKZmTWcmeuemZYcot0G1b+xnqR6kuv5rRAgQIAAAQIECBAgQIAAAQILCPhHogUGQQgECBAgQIAAAQIECCwlkGRmZ6rn76ybNbzU8Ow6mNxreU43Y33Xw6xzBAgQIECAAAECBAgQILBFAYn1LY6amAkQIECAAAECBAgQOLVAEuotSXZKrlfD8pQCnaFuxvoplZ2bAAECBAgQIECAAAECBAi8hYDE+lugOYQAAQIECBAgQIAAgd0LJMEpob77YV6ug3mh4/mouf88ry83PAIiQIAAAQIECBAgQIAAgWsW8KB+zaOv7wQIECBAgAABAgQIPCSQpLrk5kM6tp9CoC9yeKnjFLrOSYAAAQIECBAgQIAAAQIE3lFAYv0dAR1OgAABAgQIECBAgMAuBfIp7pQkOVO6vP3lvwROI5Dkep7T3W+n8XVWAgQIECBAgAABAgQIECDw1gIS629N50ACBAgQIECAAAECBHYqkORmPsnd6rlppwO9WLeSTM+99tldXJLriw2QcAgQIECAAAECBAgQIEDgugX8A9F1j7/eEyBAgAABAgQIECDwqkASmpmx3uWrLWwhcBqBObmeFzvykodCgAABAgQIECBAgAABAgQILCAgsb7AIAiBAAECBAgQIECAAAECBAjcCeQ5PQn1/jkCMAQIECBAgAABAgQIECBAgMACAhLrCwyCEAgQIECAAAECBAgQWEogSc18jjvL50tFJpi9CySZnvvu2ai5B30OfiAoBAgQIECAAAECBAgQIEBgBQGJ9RVGQQwECBAgQIAAAQIECKwk0GRmlqn5JLdC4BwCTaZ3xnqWCgECBAgQIECAAAECBAgQILCAgMT6AoMgBAIECBAgQIAAAQIElhNIQrOJ9QQnwbncEO0yoNxnSa7nZY7UvuQxVhUCBAgQIECAAAECBAgQIEDgkgIS65fUd20CBAgQIECAAAECBFYVyKe4m1j33LTqKO0vrt5rvf/210M9IkCAAAECBAgQIECAAAECGxXoQ/tGwxc2AQIECBAgQIAAAQIETiKQv62e2cOpPgV/EmInPRDobPVszqz1/FYIECBAgAABAgQIECBAgACBRQQk1hcZCGEQIECAAAECBAgQILCUQJ+VktzszPWlAhTMLgXmZLoXOnY5xDpFgAABAgQIECBAgAABAlsV6D8WbTV+cRMgQIAAAQIECBAgQODYAkluvnd30jwz+TvXxxZ2vvsE+gJHX+boPXhfW9sIECBAgAABAgQIECBAgACBMwtIrJ8Z3OUIECBAgAABAgQIEFheIAnOfgrerOHlh2tXAeYZPQn13Hep8wz28VMhQIAAAQIECBAgQIAAAQIELiUgsX4pedclQIAAAQIECBAgQGBlgTwrJanpmWnlUdpnbHmxowl2X0vY5xjrFQECBAgQIECAAAECBAhsUMA/Em1w0IRMgAABAgQIECBAgMBJBZJQ70z1z056JScn8KpAoEb/hQAAQABJREFU7rncg+69V21sIUCAAAECBAgQIECAAAECFxN4drEruzABAgQIECBAgAABAgTWFMgs4Twr5ZPc79/VnxjLw0RnZxM/9Lnu7h+Hvij3tX1Mu8M2953nxUVOvPKmWA73J5z74n1suxzftvedJ/vftfT8Pc/hdQ73p91hm2x7bLu5bc+TF99zv2WZ8+Qe7L6xqhAgQIAAAQIECBAgQIAAAQKXFJBYv6S+axMgQIAAAQIECBAgsKLAhyOonx/1a6Pmb63/2qh/cdQm1pPsTPIzNcn3H4+aRGiTqv3b2H3eyvacJ21zbM6T9Sx7nh7bRGrat6Rt9qf9B3fLrKdttuccKW3T39mfWLJ9rjl3k7Zp05rj0i4lxzXe/u71sj01/W6bxNMy9zvbGkfPmbY5rvEmmdz4fjTWU+Y+5Pj2O+don9qu52ksvd68/7BN9uU8p+pTfXOdeOf6b+pTYskLHPWLU45TCBAgQIAAAQIECBAgQIAAgQUE+sC+QChCIECAAAECBAgQIECAwMUFksj8yVF/ddSfGTW//86o3xu1JQnSJnezPwnRlCy7L7+zfrgvvw/b5RypKdmX9Zy/pfu7r+fo/l4zy5R5f/f1/LctXv5v2rdd9vR6WU8c875s6/7XxdN9af9QPDlP9iUh/sVRU74/ahLKvWbjbtu0776x+uL4rmeZknYpPX5eP3Wfem/0mh3Lxt2YDvv06Tjg90f90qh5aaHHjVWFAAECBAgQIECAAAECBAgQuLSAxPqlR8D1CRAgQIAAAQIECBBYSSAJ2R+O+jujfjJqfv/3Uf/3qE2EJhHcpGeTpNmWZGiesQ5nGjcZ3DZJsGZbjp1nb4+fLxLC83radsb24fb8znkzKzoz7dM250x8OX+u1XgaaxO8Y9dN+xzTPmU9+/M77TODvH0aqzfb5mX71HN3ObdpTGmb9bRJfO3TT431Pz9q9v32qEkuJ4b0qW3G6s3+LOc+9TzZnn6m5DypKblWYzpnn+p/E8T4T+LJ9R/qU2JMYj3ef2nUFM/rtw7+S4AAAQIECBAgQIAAAQIElhDwoL7EMAiCAAECBAgQIECAAIGFBJJQ/41R/8eoSXT+k1F/c9QkS1OaqM16Eqb53WTuvC/7u6/b70u4JlE8lyaFuy2/2+ah63V7krdNpHdblimN5bDNvO+wTc+RNl1vm4f61PNl2fJQv/NM+hdG/Ud3Df/FWH5z1PThoeulafvUNvf1Ke1SGm/b9Jjs63rbHKNP83kbZ7alPHS9271f+MIvjpU/M2o+CZ8kvEKAAAECBAgQIECAAAECBAgsIiCxvshACIMAAQIECBAgQIAAgWUEktRNQj2Jzcwi/t1RM2O9M6LHqnIkgSS7f3Y61++N9W+Neo3Wsfj6qHkJoQn4saoQIECAAAECBAgQIECAAAECKwhIrK8wCmIgQIAAAQIECBAgQGAlgcxaTmK3s5gzWzyJzsPZx2OT8o4CMZ1nZmf9Wq3T78N7zT33jjeYwwkQIECAAAECBAgQIECAwLEEJNaPJek8BAgQIECAAAECBAjsRSDJzMweTpK3Sfa99G3FfiSZ3M/sZ/3aS57Tc9/lHsxSIUCAAAECBAgQIECAAAECBBYQkFhfYBCEQIAAAQIECBAgQIDAcgKdsd6E73IB7iigGDehzntHA6srBAgQIECAAAECBAgQIEBgTwIS63saTX0hQIAAAQIECBAgQOAYApklnERvZgwn0etz3APhhCXW+Vv2KU2w3/66zv/mpY7cc11ep4JeEyBAgAABAgQIECBAgACBxQQk1hcbEOEQIECAAAECBAgQILCEQJPpkuunH468vPD+3WWufcZ6+p+XC1p9Cv7uxrAgQIAAAQIECBAgQIAAAQKXFpBYv/QIuD4BAgQIECBAgAABAqsKJLmeRKfk5mlHKEnkJtSvecZ6X+boMjPWFQIECBAgQIAAAQIECBAgQGARAYn1RQZCGAQIECBAgAABAgQILCWQZHpqkpxdXyrAHQUT4yaTu9xR957clbxk0PvuyQc7gAABAgQIECBAgAABAgQIEDiNgMT6aVydlQABAgQIECBAgACBbQs0uZlnpmueRX3qUezXADpjPdfrtlNfe9Xz90UOLxmsOkLiIkCAAAECBAgQIECAAIGrFJBYv8ph12kCBAgQIECAAAECBF4jkIRm/rZ6P8UtwfkarHfc1ZnZ8U5JUvlavZtQv4EY//FCRyUsCRAgQIAAAQIECBAgQIDAAgIe1BcYBCEQIECAAAECBAgQILCUQBKcSaon2ZuZ1PmtnE4gxnnpO3WeuX66K6575txrfU7P/XetLxmsO0IiI0CAAAECBAgQIECAAIGrFTBj/WqHXscJECBAgAABAgQIEHhAIMnMzlhPklNy8wGoI22O8Y/vztWk8pFOvcnT5OWC3HPPR/VSxyaHUNAECBAgQIAAAQIECBAgsEcB/2ixx1HVJwIECBAgQIAAAQIE3kVgnrGe80huvovmm4/t1wH6MsObj9h3izjknstSIUCAAAECBAgQIECAAAECBBYRMGN9kYEQBgECBAgQIECAAAECSwnkJeQkNzNr+No/T37qgZkT6pLJt7PVc8/lhQNfSzj13ef8BAgQIECAAAECBAgQIEDgkQIS64+E0owAAQIECBAgQIAAgasSSEIzNcn1rl8VwBk7myTyB3fXu/aXGJpQz4sdfbnjjEPhUgQIECBAgAABAgQIECBAgMBDAhLrD8nYToAAAQIECBAgQIDAtQskqZ7kplnDp70TYpwvA6Rk/VpLX+DoyxyZsa4QIECAAAECBAgQIECAAAECiwhIrC8yEMIgQIAAAQIECBAgQGApgSQ3U5LcNHP4huIk/zlMIvcrASe52AZO2vsuoV7zSwYbGCohEiBAgAABAgQIECBAgMC1CUisX9uI6y8BAgQIECBAgAABAm8SSHJ3/iT3nOx807H2P02gXwOYk8jd9rQzbb917rP+jfks3XfbH1M9IECAAAECBAgQIECAAIEdCUis72gwdYUAAQIECBAgQIAAgaMJJLGZBO+c8D3ayZ3oJYEkkJtE7vKlBlf0o39jPp/Gv9YXDK5ouHWVAAECBAgQIECAAAECBLYk4B+JtjRaYiVAgAABAgQIECBA4BwCSe7mE/B5ETnJzc4iHqvKCQSSTM6zaWoTyye4zCZOmXsv91s9JNc3MWyCJECAAAECBAgQIECAAIFrEDBj/RpGWR8JECBAgAABAgQIEHiKQJPpWTbJ/pTjtX2aQJLIn94dkvVrLv1SQu+7LBUCBAgQIECAAAECBAgQIEBgAQGJ9QUGQQgECBAgQIAAAQIECCwlkGRmZk6nZuZ6E+xNcvb32PVg2VqbS8Ub01z7/TvJOY56P4Q8t72vTfanvO48bzpHjj9Xm8SZ+y3LfAq+SfaxqhAgQIAAAQIECBAgQIAAAQKXFpBYv/QIuD4BAgQIECBAgAABAqsJJLGZRO+Ho2Ym9VdG/fKoSbQ3WTtWX5TMsp6TonObbM/vx7TpJ+ebXL3vPE223vfJ9FwrJdd6KNbDNmk/Xye/U9Ku58nv+9oco085x0+P2n791FiPdQxS6tf9j+l3jjuM97H9Pkafcu053vYhcaX099wm23Ptnxg1x6dNDcaqQoAAAQIECBAgQIAAAQIECFxaQGL90iPg+gQIECBAgAABAgQIrCbwwQjoT436x0f9Y6P+3VH/xqhJ6ibZmQRokqKZVZy2cwI0SdE5qTu3TbK0x7VdtqUkkd/zpE3WmxxPm9Q8v81tfjR+5/wtbZffjS0vBvS4XDPX+fGovUbiT5sc29japs+LjXU0uSmJKy8dzLHkem2Xc7Xfc5t+7j3tGmuu9TOj/tzdtlj/tVFzjZS2u/11G2Pib5/SLnGnXcrc79stt/89Z58aW/rZ9fYn0TzUp/YjtlmPYfs1VhUCBAgQIECAAAECBAgQIEDgkgL9h5JLxuDaBAgQIECAAAECBAgQWEngoxHMnx71j46axGYSvZ+MmkRpS5KeSZY28Xm4r7+zv0nVbGsivOvdN3a9dK60S5v5PGmT34fXzO9e53Bfjum5st52WU953b75XG13rHhql2t8cdSvJphR/uqo37tZezXWw3ieYtd+H57jmMbtU8Kf12uX7Y0j6ylzPPn93VG/NOoPR631WFUIECBAgAABAgQIECBAgACBSwtIrF96BFyfAAECBAgQIECAAIHVBJLU/K+jfjxqZlz/21G/fbee30mUdna3GeufWzRJnWRxjR4zYz0vMPyVu2P+3VjGuknznKvJ57F6477XGesxS1//+t1yLBQCBAgQIECAAAECBAgQIEBgFQGJ9VVGQhwECBAgQIAAAQIECKwikE+s/7dR/9eoSeL+q1G/OWqSvffNIm5CNEnkJEbnNv39mDZJ1qe87jxpk/M38Zz2LU1A51oPxXrYJsfO8c7n6nkeanOMPuXc+Rv2vzJqYo7zd0ZtTPV7Sr/H4S+Oz3rKY/t9jD4l9jne9uEmkLtYDttkX679y6P+5VEza70xj1WFAAECBAgQIECAAAECBAgQuLSAxPqlR8D1CRAgQIAAAQIECBBYUSCJz9QkuZPoTc16Sra/Kem5tTaXjDe23wrsKHmRIbEcI56cI+V1Y3WM6+QaxzhPkvF5qWNOyufcCgECBAgQIECAAAECBAgQILCAgMT6AoMgBAIECBAgQIAAAQIElhNIEj3J0jmZ3kRtgp3X8/u+srU2l4o3183n9w/LueI513XSv9ddK/u6P/ddE+w5TiFAgAABAgQIECBAgAABAgQuLJBPzSkECBAgQIAAAQIECBAg8LlAkpt5CTkznT0zfe5i7fQCuefySfwk1ZNcf91s+7FbIUCAAAECBAgQIECAAAECBM4l4B+JziXtOgQIECBAgAABAgQIbEUgyczOVH/ob5VvpS/i3JZAXurIc7oZ69saN9ESIECAAAECBAgQIECAwBUISKxfwSDrIgECBAgQIECAAAECTxZIQr1l/kR3t1kSOIVAZ6ibsX4KXeckQIAAAQIECBAgQIAAAQLvICCx/g54DiVAgAABAgQIECBAYLcCSXBKqO92eJftWF7oeD5q7j/P68sOk8AIECBAgAABAgQIECBA4BoFPKhf46jrMwECBAgQIECAAAECbxJIUl1y801K9h9ToC9yeKnjmKrORYAAAQIECBAgQIAAAQIEjiQgsX4kSKchQIAAAQIECBAgQGBXAvkUd0qSnCld3v7yXwKnEUhyPc/p7rfT+DorAQIECBAgQIAAAQIECBB4awGJ9bemcyABAgQIECBAgAABAjsVSHIzn+Ru9dy004FerFtJpude++wuLsn1xQZIOAQIECBAgAABAgQIECBw3QL+gei6x1/vCRAgQIAAAQIECBB4VSAJzcxY7/LVFrYQOI3AnFzPix15yUMhQIAAAQIECBAgQIAAAQIEFhCQWF9gEIRAgAABAgQIECBAgAABAgTuBPKcnoR6/xwBGAIECBAgQIAAAQIECBAgQGABAYn1BQZBCAQIECBAgAABAgQILCWQpGY+x53l86UiE8zeBZJMz333bNTcgz4HPxAUAgQIECBAgAABAgQIECCwgoDE+gqjIAYCBAgQIECAAAECBFYSaDIzy9R8klshcA6BJtM7Yz1LhQABAgQIECBAgAABAgQIEFhAQGJ9gUEQAgECBAgQIECAAAECywkkodnEeoKT4FxuiHYZUO6zJNfzMkdqX/IYqwoBAgQIECBAgAABAgQIECBwSQGJ9UvquzYBAgQIECBAgAABAqsK5FPcTax7blp1lPYXV++13n/766EeESBAgAABAgQIECBAgACBjQr0oX2j4QubAAECBAgQIECAAAECJxHI31bP7OFUn4I/CbGTHgh0tno2Z9Z6fisECBAgQIAAAQIECBAgQIDAIgIS64sMhDAIECBAgAABAgQIEFhKoM9KSW525vpSAQpmlwJzMt0LHbscYp0iQIAAAQIECBAgQIAAga0K9B+Lthq/uAkQIECAAAECBAgQIHBsgSQ337s7aZ6Z/J3rYws7330CfYGjL3P0HryvrW0ECBAgQIAAAQIECBAgQIDAmQUk1s8M7nIECBAgQIAAAQIECCwvkARnPwVv1vDyw7WrAPOMnoR67rvUeQb7+KkQIECAAAECBAgQIECAAAEClxKQWL+UvOsSIECAAAECBAgQILCyQJ6VktT0zLTyKO0ztrzY0QS7ryXsc4z1igABAgQIECBAgAABAgQ2KOAfiTY4aEImQIAAAQIECBAgQOCkAkmod6b6Zye9kpMTeFUg91zuQffeqza2ECBAgAABAgQIECBAgACBiwlIrF+M3oUJECBAgAABAgQIEFhUoDOGO2u4SfZFwxXWzgRy3+UefDaqT8HvbHB1hwABAgQIECBAgAABAgS2KyCxvt2xEzkBAgQIECBAgAABAqcTaDK9ic0uT3dFZyZwm0jvvZcZ6z4F764gQIAAAQIECBAgQIAAAQKLCEisLzIQwiBAgAABAgQIECBAYCmBJDSTTJdQX2pYdh3M4f3WBPuuO61zBAgQIECAAAECBAgQIEBgKwIS61sZKXESIECAAAECBAgQIHBOgSTW37u7YJZmDp9T/7qv1QS7e+667wO9J0CAAAECBAgQIECAAIHFBCTWFxsQ4RAgQIAAAQIECBAgsIRAkpvP7yIxc3iJIbmaIPKc3i8mXE2ndZQAAQIECBAgQIAAAQIECKwuILG++giJjwABAgQIECBAgACBcwskqZ5npVSz1c+tf73X6wz1LvvFhOsV0XMCBAgQIECAAAECBAgQILCQgMT6QoMhFAIECBAgQIAAAQIElhBIYvOzUTtrWIJziWG5iiDyjJ4vJLTmJQ+FAAECBAgQIECAAAECBAgQWEBAYn2BQRACAQIECBAgQIAAAQJLCSSZmWR6PgXfJPtSAQpm1wL9SkKXu+6szhEgQIAAAQIECBAgQIAAga0ISKxvZaTESYAAAQIECBAgQIDAOQU6Y93fVz+numsRIECAAAECBAgQIECAAAECBBYVkFhfdGCERYAAAQIECBAgQIDAxQQySz3PSpkxnMS6z3EPBOVsAnmpI/dcl2e7sAsRIECAAAECBAgQIECAAAECDws8e3iXPQQIECBAgAABAgQIELhagSbT88yURHuWXky+2tvhLB3vp99zn7Xm3lMIECBAgAABAgQIECBAgACBBQQk1hcYBCEQIECAAAECBAgQILCcQBKaSXR+adRfHfXro6ZkW/72ep6lOqO4Sfgc0+MO24xdN8nSzICf2+R8OX7+5Hy25XeSqz3PYZucI9vSNqXtE1NLjk+7bJvj7f4sm8DtdbJMyfbG1Hh/PLZ9MGr7PVZfapdr9Dw5tsenXUrPkzZv6nfa5zrtZ36n7L1PPz/6+NGoHbf0WSFAgAABAgQIECBAgAABAgQWEJBYX2AQhECAAAECBAgQIECAwHICeVZKUv2ro/69UX8wahPDTRg3+ZkEd0r393eSwE1CZ1t+ZzknlZtEH5tvEtE5R5PHuU7av3+3b040t02vleOy3mPG6otZ9p+O9bZvPNnfbVm2T9me9Zyvy8ab82d7as+TY7M9y5aer/Fke47peXLe9qmJ/OzPcVnmuJSuN45szznSbq99Sv++MurHo6b/CgECBAgQIECAAAECBAgQILCIgMT6IgMhDAIECBAgQIAAAQIElhJI4jgJ3SR+vzPqJ6Mm0TkngpsoTpI3JcnitGnSOdvyzJXzZFsSwqlJELfdWL1pk2WTxTkms8Nz/iaVu97fOU9i6TNd1jObPMtcK+1TG0vWm7DOMudJvCltk/WcN7Flf2rO337nd/ZnW86Ra+V3as85Vm/a53op7VPOkdJ+Z9n4Gm/7Pfcp67luzt9rNd499imz1f/IqCnps0KAAAECBAgQIECAAAECBAgsItB/sFgkHGEQIECAAAECBAgQIEDg4gJNaCah/gej/tNRf2vUJneTFG6bJn3HppukcZK/KW0z7+/2tmmiOsuUnjPHpk23d73Xz/bXtRm7X8TaY+drztdJ2+xrvNnXmn29Ttbnkhjm86Rda7Y39rnNHEPjal9y7l6rx7ZNztH1uc18vvk6OVf2pW22z3X8fHGdrM/l0n1KLL846j8YNS89tH9jVSFAgAABAgQIECBAgAABAgQuLSCxfukRcH0CBAgQIECAAAECBFYTSEI2s6KzzEz13xn1v4zabWP1pjSZ299d5riWc7U513XSr3Nd61zXWaVPmYGfGev5EkAS6/OM/PFTIUCAAAECBAgQIECAAAECBC4pILF+SX3XJkCAAAECBAgQIEBgRYEkdPuZ8swazkzm1hXjFdN+BHqf5R5Mgn1+SWM/vdQTAgQIECBAgAABAgQIEPj/7N27jixHHQfggGNbSEg2twjBAxA4IEGIiAAeAl6PxyAlAjIeAAkkEiSwkLnY50jUb3Z/pnbOzO6ey0zXzHwl1fatuqvqq056/109BC5QwKflLnDQNJkAAQIECBAgQIAAgZMKdMZ6gutJgpt3Dv6eRyD3Xe653n/nqVUtBAgQIECAAAECBAgQIECAwKMCAuuP8jhIgAABAgQIECBAgMCNCuRZKcHNzBrOLGKJwLkEMls991x+euDY5/DP1Rb1ECBAgAABAgQIECBAgAABAvcCAutuBQIECBAgQIAAAQIECLwukIBmcoLrXX+9lD0E3q9AA+p5Vu/LHe+3BlcjQIAAAQIECBAgQIAAAQIE3kpAYP2t2JxEgAABAgQIECBAgMANCCSonmcms4ZvYLAX6GJf4OjLHJmxLhEgQIAAAQIECBAgQIAAAQKLCAisLzIQmkGAAAECBAgQIECAwFICCW4mJbhp5vCOwp8zCPS+S1We188ArgoCBAgQIECAAAECBAgQIPBcAQ/qz5VSjgABAgQIECBAgACBWxHIzOH5k9xzsPNWDPTz/AK5z752X22W7rvzj4EaCRAgQIAAAQIECBAgQIDAUQGB9aM0DhAgQIAAAQIECBAgcMMCCWwmwO6Z6YZvgg26nhc6kl6O7CcIdhT+ECBAgAABAgQIECBAgACBNQT8k2iNcdAKAgQIECBAgAABAgTWEchM4XwC/sXICW52FvFYlQicVKCz1vOsniy4flJuFydAgAABAgQIECBAgAABAs8XEFh/vpWSBAgQIECAAAECBAjchkCD6Vk2yH4bPdfLrQX6pYTed1lKBAgQIECAAAECBAgQIECAwAICAusLDIImECBAgAABAgQIECCwlECCmfkkd39n3azhpYbnqhuTLyXk/sun4Btkv+oO6xwBAgQIECBAgAABAgQIELgUAYH1Sxkp7SRAgAABAgQIECBA4JwCCW7mU/BJnpvuHPw9j0Be6Mj9lyC7RIAAAQIECBAgQIAAAQIECCwi4B9EiwyEZhAgQIAAAQIECBAgsJRAZqk3sJmlWetLDc/VNib3WQLrma2e5/UE2CUCBAgQIECAAAECBAgQIEBgAQGB9QUGQRMIECBAgAABAgQIEFhOIMHNJkH1SlieUmAOqqce990ptV2bAAECBAgQIECAAAECBAi8oYDA+huCKU6AAAECBAgQIECAwE0IZMZwZgsnuJmlmcMDQTq5QO6zvNQhqH5yahUQIECAAAECBAgQIECAAIE3ExBYfzMvpQkQIECAAAECBAgQuH6BzhyeP8l9/b3Ww60F+gKHlzm2Hgn1EyBAgAABAgQIECBAgACBAwIC6wdQ7CJAgAABAgQIECBA4KYFEuD0G9c3fQts1vk8o78YuS93bNYQFRMgQIAAAQIECBAgQIAAAQIPBQTWH3rYIkCAAAECBAgQIECAQARejZzgZpYSgXMJ5J5Lyn2Xlzu6nX0SAQIECBAgQIAAAQIECBAgsKGAwPqG+KomQIAAAQIECBAgQGBJgQQzM2s4M9c9My05RFfbqP7GeoLqCa5nWyJAgAABAgQIECBAgAABAgQWEPBPogUGQRMIECBAgAABAgQIEFhKIMHMzlTP76ybNbzU8Fx1Y3Kv5TndjPWrHmadI0CAAAECBAgQIECAAIFLFBBYv8RR02YCBAgQIECAAAECBE4tkIB6U4KdguvVsDylQGeom7F+SmXXJkCAAAECBAgQIECAAAECbyEgsP4WaE4hQIAAAQIECBAgQODqBRLgFFC/+mFeroN5oePlyLn/PK8vNzwaRIAAAQIECBAgQIAAAQK3LOBB/ZZHX98JECBAgAABAgQIEDgmkKC64OYxHftPIdAXObzUcQpd1yRAgAABAgQIECBAgAABAu8o8OIdz3c6AQIECBAgQIAAAQIErlEgn+JOSpAzKcuu73Yc+NNg/IFDu11PHU+hSytzae19jnH6lPTYeJ+i36kv180L8I/VPQ5LBAgQIECAAAECBAgQIECAwLkFBNbPLa4+AgQIECBAgAABAgRWF0hQ84ORs0yQ8+ORPxn51cgNeGZ/PtvdIOxY/Srtl8mBY+V6nWNlGmRt3fN1Uk+2+xLAU2VSNm3ueWN1l/bbO9dxrEz2Hyu3Sp9q0363L13u9/tQn55TJuc9Z5yeKpPrfH3kjGNS677b8pcAAQIECBAgQIAAAQIECBDYVEBgfVN+lRMgQIAAAQIECBAgsJhAgpnfHPnHI39/5AQ5fznyz0ZOgDbHG/DMb2F/OPKXI+fZKmVTJkH5L0ZOwDv7WibnZV/Oa5k+k+W85KYEwD8aOecn9byWy7USqG0dLZO2JKVc2zq3reu5flPLZfsa+5R+xSljMvc/+9L3pLnfd3vu/h4ap4xJ7XtexylndYzurvCwbOo7NJY955/jeMf92Isbva4lAQIECBAgQIAAAQIECBAgcEaB/hPnjFWqigABAgQIECBAgAABAssKJPD57ZF/NPK37lv507H818g51hnfOZRgaFMCrd1uueccS9mknNtrzNfpsblc9mW79ewfy/Fca27rvN56Uu6pa8xtyTWaDl2jx+b2tNx8nZTL9lwu+7L9VHvmfszrrafXmds615Nyjx1Lu+a2vkl7el7acKw9KZNjSV1vexL4//PICaznBYkE4CUCBAgQIECAAAECBAgQIEBgEQGB9UUGQjMIECBAgAABAgQIEFhCIMHOv438+5E/HTkBzt+O/NeRc6zB37H6YJZzZ0KnTGc5JzBqxnqk7lICyJ2NnT2HZm4n6Fy3lnnXWfi9ziXMWP98NPa7I+ceyr3TlwLGqkSAAAECBAgQIECAAAECBAhsKSCwvqW+ugkQIECAAAECBAgQWE0ggfHPRv7dyL8Y+d8j/3rkP448Bzo78znl91ODoS2T48fKPVUmx3O91j1fJ/uz3ZnNT5VJ2QS3e95Y3aX99s51HCuT/cfKrdKn2rTf7UuX+/0+1KfnlMl5zxmnp8rkOj8c+ecj51k943rIeOyWCBAgQIAAAQIECBAgQIAAgXMLCKyfW1x9BAgQIECAAAECBAisLpDg839GzjLB6vzu9d9HfirImeMNxI7V19JTx3PCpZW5tPY+xzh9Sjr3WCaQnvsu91zuvb4EMVYlAgQIECBAgAABAgQIECBAYGsBgfWtR0D9BAgQIECAAAECBAisKJBnpQRWkzPTOKkB17utw3+fKvPU8fdVzzmvc419eo7f++53rtd7rfdf2iERIECAAAECBAgQIECAAAECCwj0oX2BpmgCAQIECBAgQIAAAQIElhF4OVqSQGdyZg5LBE4tkHsts9WTssy2RIAAAQIECBAgQIAAAQIECCwiILC+yEBoBgECBAgQIECAAAECSwn0WSnBzc5cX6qBGnOVAnMw3QsdVznEOkWAAAECBAgQIECAAAEClyrQfxZdavu1mwABAgQIECBAgAABAu9bIMHN/N51Up6ZHvut7V0hfwi8B4G+wNGXOXoPvodLuwQBAgQIECBAgAABAgQIECDwrgIC6+8q6HwCBAgQIECAAAECBK5NIAHOfgrerOFrG921+5Nn9ATUc98lzzPYx6ZEgAABAgQIECBAgAABAgQIbCUgsL6VvHoJECBAgAABAgQIEFhZIM9KCWp6Zlp5lK6zbXmxowF2X0u4zjHWKwIECBAgQIAAAQIECBC4QAH/JLrAQdNkAgQIECBAgAABAgROKpCAemeqvzppTS5O4HWB3HO5B917r9vYQ4AAAQIECBAgQIAAAQIENhMQWN+MXsUECBAgQIAAAQIECCwq0BnDnTXcIPuizdWsKxPIfZd78MXIPgV/ZYOrOwQIECBAgAABAgQIECBwuQIC65c7dlpOgAABAgQIECBAgMDpBBpMb2Czy9PV6MoE7gLpvfcyY92n4N0VBAgQIECAAAECBAgQIEBgEQGB9UUGQjMIECBAgAABAgQIEFhKIAHNBNMF1JcalqtuzP791gD7VXda5wgQIECAAAECBAgQIECAwKUICKxfykhpJwECBAgQIECAAAEC5xRIYP1r9xVmaebwOfVvu64G2N1zt30f6D0BAgQIECBAgAABAgQILCYgsL7YgGgOAQIECBAgQIAAAQJLCCS4+eV9S8wcXmJIbqYReU7vFxNuptM6SoAAAQIECBAgQIAAAQIEVhcQWF99hLSPAAECBAgQIECAAIFzCySonsBmsmemc+vfbn2dod5lv5hwuyJ6ToAAAQIECBAgQIAAAQIEFhLwT6KFBkNTCBAgQIAAAQIECBBYQiCBzcxSn5dLNEwjrl4gz+i595rzkodEgAABAgQIECBAgAABAgQILCAgsL7AIGgCAQIECBAgQIAAAQLLCfR31c0aXm5orr5B873X2etX32kdJECAAAECBAgQIECAAAECqwsIrK8+QtpHgAABAgQIECBAgMC5BTJL+NXImTVsxvC59dVHgAABAgQIECBAgAABAgQIEFhQQGB9wUHRJAIECBAgQIAAAQIENhXILOE8K2XmcALsgusDQTqbwMtRU1/ucO+djV1FBAgQIECAAAECBAgQIEDgcQGB9cd9HCVAgAABAgQIECBA4DYFGtBMcN3M9du8B7bode61vNjRT8B3uUVb1EmAAAECBAgQIECAAAECBAhMAgLrE4ZVAgQIECBAgAABAgQITAIJrjfQOe22SuAkAn2Zo4H1bp+kMhclQIAAAQIECBAgQIAAAQIE3kxAYP3NvJQmQIAAAQIECBAgQOA2BObgZtdvo+d6uaVAntF7v73YsiHqJkCAAAECBAgQIECAAAECBB4KCKw/9LBFgAABAgQIECBAgACBCPTz7wluem5yT5xLoPddZqvnt9YlAgQIECBAgAABAgQIECBAYBEB/yBaZCA0gwABAgQIECBAgACBZQQS1Mxvq7+6b5FPci8zNFfdkM5U7/3mef2qh1vnCBAgQIAAAQIECBAgQODSBHxa7tJGTHsJECBAgAABAgQIEDi1QAKcCaonuP7FyB/e5+xL0DPHG/wcq7vtLHss60mHytwd+f/fdykz17d/nR7r8lB7emxetmXpY1KP3W3pUxxqU5MuY9X0pmVybp7Pc6/lvkvKcr7mbqc/BAgQIECAAAECBAgQIECAwDYCAuvbuKuVAAECBAgQIECAAIF1BRLMbFDz47H+k5G/N3I/051jmU385chZz/7kzjDu+WPXVwH6BuXzDNbyOTcB2HzyO/tzXsrlOsnZn+Mp10D/WN2tN3DbelM+ZT4YOfuy3jJZ7rep+8ahXWqd196nud/7JvNYdpzimPWc1zHoOGVfUq+zXybjl2t2LGvc6+TceZxy/Acjf2PkXLPjP1YlAgQIECBAgAABAgQIECBAYGuB/INAIkCAAAECBAgQIECAAIGHAp+PzQQ9vzPyr0bOzPUEOxuY7TLB0ASye6zB1uzL+v7xbKdsyx9b5tz5uvN1sp40X6fH2655mbK5VoK8SQ3mpkzLze3otbovZZIuuU/pQ9pfu/QnKfuScrz9znbW0/9Dx2tWlzpl2WtkPSnbrbvbueZ8PPuT2oZPxvpfRv7vyC03ViUCBAgQIECAAAECBAgQIEBgSwGB9S311U2AAAECBAgQIECAwIoCCXwmsPmbkT8d+aORM5O7AdIGqBP07IzkBt4bSB2HdqmB0Tx7ZQbynLIvQe7kXCf5UJnuayB3FPsq6Jt9+Xx42tyA+VjdrTc43Pb2/AZ22/6cl7JJ3Zfta+pTLWJQp9kj6x3LjHVTPGabluuYtFzHMuVTJsuut8z8NYH962Y79efcP438h/tlxkoiQIAAAQIECBAgQIAAAQIEFhDIQ7tEgAABAgQIECBAgAABAg8FEijNZ+CTs560HyjNvj5T5dh+yrEEZRscbTC12w32tkzKz8ey3uu3zLF6RtFd+7Jsmtub68zn9liXPSfL1jmX7/Eca1uyL2Xm7azP+1J+hT6NZuz6dahPOZY093vuU49139yn3Ynjz36/53rm81J+Ptbzu8y1E7T/x8if3a+PhUSAAAECBAgQIECAAAECBAhsLdB/HGzdDvUTIECAAAECBAgQIEBgNYFjz0uH9u8HS1cvc2ntzb3xVJufOv6ca6xQpv3oMm2SCBAgQIAAAQIECBAgQIAAAQIECBAgQIAAAQIECBAgQIAAAQIECBAgQIAAAQIECBAgQIAAAQIECBAgQIAAAQIECBAgQIAAAQIECBAgQIAAAQIECBAgQIAAAQIECBAgQIAAAQIECBAgQIAAAQIECBAgQIAAAQIECBAgQIAAAQIECBAgQIAAAQIECBAgQIAAAQIECBAgQIAAAQIECBAgQIAAAQIECBAgQIAAAQIECBAgQIAAAQIECBAgQIAAAQIECBAgQIAAAQIECBAgQIAAAQIECBAgQIAAAQIECBAgQIAAAQIECBAgQIAAAQIECBAgQIAAAQIECBAgQIAAAQIECBAgQIAAAQIECBAgQIAAAQIECBAgQIAAAQIECBAgQIAAAQIECBAgQIAAAQIECBAgQIAAAQIECBAgQIAAAQIECBAgQIAAAQIECBAgQIAAAQIECBAgQIAAAQIECBAgQIAAAQIECBAgQIAAAQIECBAgQIAAAQIECBAgQIAAAQIECBAgQIAAAQIECBAgQIAAAQIECBAgQIAAAQIECBAgQIAAAQIECBAgQIAAAQIECBAgQIAAAQIECBAgQIAAAQIECBAgQIAAAQIECBAgQIAAAQIECBAgQIAAAQIECBAgQIAAAQIECBAgQIAAAQIECBAgQIAAAQIECBAgQIAAAQIECBAgQIAAAQIECBAgQIAAAQIECBAgQIAAAQIECBAgQIAAAQIECBAgQIAAAQIECBAgQIAAAQIECBAgQIAAAQIECBAgQIAAAQIECBAgQIAAAQIECBAgQIAAAQIECBAgQIAAAQIECBAgQIAAAQIECBAgQIAAAQIECBAgQIAAAQIECBAgQIAAAQIECBAgQIAAAQIECBAgQIAAAQIECBAgQIAAAQIECBAgQIAAAQIECBAgQIAAAQIECBAgQIAAAQIECBAgQIAAAQIECBAgQIAAAQIECBAgQIAAAQIECBAgQIAAAQIECBAgQIAAAQIECBAgQIAAAQIECBAgQIAAAQIECBAgQIAAAQIECBAgQIAAAQIECBAgQIAAAQIECBAgQIAAAQIECBAgQIAAAQIECBAgQIAAAQIECBAgQIAAAQIECBAgQIAAAQIECBAgQIAAAQIECBAgQIAAAQIECBAgQIAAAQIECBAgQIAAAQIECBAgQIAAAQIECBAgQIAAAQIECBAgQIAAAQIECBAgQIAAAQIECBAgQIAAAQIECBAgQIAAAQIECBAgQIAAAQIECBAgQIAAAQIECBAgQIAAAQIECBAgQIAAAQIECBAgQIAAAQIECBAgQIAAAQIECBAgQIAAAQIECBAgQIAAAQIECBAgQIAAAQIECBAgQIAAAQIECBAgQIAAAQIECBAgQIAAAQIECBAgQIAAAQIECBAgQIAAAQIECBAgQIAAAQIECBAgQIAAAQIECBAgQIAAAQIECBAgQIAAAQIECBAgQIAAAQIECBAgQIAAAQIECBAgQIAAAQIECBAgQIAAAQIECBAgQIAAAQIECBAgQIAAAQIECBAgQIAAAQIECBAgQIAAAQIECBAgQIAAAQIECBAgQIAAAQIECBAgQIAAAQIECBAgQIAAAQIECBAgQIAAAQIECBAgQIAAAQIECBAgQIAAAQIECBAgQIAAAQIECBAgQIAAAQIECBAgQIAAAQIECBAgQIAAAQIECBAgQIAAAQIECBAgQIAAAQIECBAgQIAAAQIECBAgQIAAAQIECBAgQIAAAQIECBAgQIAAAQIECBAgQIAAAQIECBAgQIAAAQIECBAgQIAAAQIECBAgQIAAAQIECBAgQIAAAQIECBAgQIAAAQIECBAgQIAAAQIECBAgQIAAAQIECBAgQIAAAQIECBAgQIAAAQIECBAgQIAAAQIECBAgQIAAAQIECBAgQIAAAQIECBAgQIAAAQIECBAgQIAAAQIECBAgQIAAAQIECBAgQIAAAQIECBAgQIAAAQIECBAgQIAAAQIECBAgQIAAAQIECBAgQIAAAQIECBAgQIAAAQIECBAgQIAAAQIECBAgQIAAAQIECBAgQIAAAQIECBAgQIAAAQIECBAgQIAAAQIECBAgQIAAAQIECBAgQIAAAQIECBAgQIAAAQIECBAgQIAAAQIECBAgQIAAAQIECBAgQIAAAQIECBAgQIAAAQIECBAgQIAAAQIECBAgQIAAAQIECBAgQIAAAQIECBAgQIAAAQIECBAgQIAAAQIECBAgQIAAAQIECBAgQIAAAQIECBAgQIAAAQIECBAgQIAAAQIECBAgQIAAAQIECBAgQIAAAQIECBAgQIAAAQIECBAgQIAAAQIECBAgQIAAAQIECBAgQIAAAQIECBAgQIAAAQIECBAgQIAAAQIECBAgQIAAAQIECBAgQIAAAQIECBAgQIAAAQIECBAgQIAAAQIECBAgQIAAAQIECBAgQIAAAQIECBAgQIAAAQIECBAgQIAAAQIECBAgQIAAAQIECBAgQIAAAQIECBAgQIAAAQIECBAgQIAAAQIECBAgQIAAAQIECBAgQIAAAQIECBAgQIAAAQIECBAgQIAAAQIECBAgQIAAAQIECBAgQIAAAQIECBAgQIAAAQIECBAgQIAAAQIECBAgQIAAAQIECBAgQIAAAQIECBAgQIAAAQIECBAgQIAAAQIECBAgQIAAAQIECBAgQIAAAQIECBAgQIAAAQIECBAgQIAAAQIECBAgQIAAAQIECBAgQIAAAQIECBAgQIAAAQIECBAgQIAAAQIECBAgQIAAAQIECBAgQIAAAQIECBAgQIAAAQIECBAgQIAAAQIECBAgQIAAAQIECBAgQIAAAQIECBAgQIAAAQIECBAgQIAAAQIECBAgQIAAAQIECBAgQIAAAQIECBAgQIAAAQIECBAgQIAAAQIECBAgQIAAAQIECBAgQIAAAQIECBAgQIAAAQIECBAgQIAAAQIECBAgQIAAAQIECBAgQIAAAQIECBAgQIAAAQIECBAgQIAAAQIECBAgQIAAAQIECBAgQIAAAQIECBAgQIAAAQIECBAgQIAAAQIECBAgQIAAAQIECBAgQIAAAQIECBAgQIAAAQIECBAgQIAAAQIECBAgQIAAAQIECBAgQIAAAQIECBAgQIAAAQIECBAgQIAAAQIECBAgQIAAAQIECBAgQIAAAQIECBAgQIAAAQIECBAgQIAAAQIECBAgQIAAAQIECBAgQIAAAQIECBAgQIAAAQIECBAgQIAAAQIECBAgQIAAAQIECBAgQIAAAQIECBAgQIAAAQIECBAgQIAAAQIECBAgQIAAAQIECBAgQIAAAQIECBAgQIAAAQIECBAgQIAAAQIECBAgQIAAAQIECBAgQIAAAQIECBAgQIAAAQIECBAgQIAAAQIECBAgQIAAAQIECBAgQIAAAQIECBAgQIAAAQIECBAgQIAAAQIECBAgQIAAAQIECBAgQIAAAQIECBAgQIAAAQIECBAgQIAAAQIECBAgQIAAAQIECBAgQIAAAQIECBAgQIAAAQIECBAgQIAAAQIECBAgQIAAAQIECBAgQIAAAQIECBAgQIAAAQIECBAgQIAAAQIECBAgQIAAAQIECBAgQIAAAQIECBAgQIAAAQIECBAgQIAAAQIECBAgQIAAAQIECBAgQIAAAQIECBAgQIAAAQIECBAgQIAAAQIECBAgQIAAAQIECBAgQIAAAQIECBAgQIAAAQIECBAgQIAAAQIECBAgQIAAAQIECBAgQIAAAQIECBAgQIAAAQIECBAgQIAAAQIECBAgQIAAAQIECBAgQIAAAQIECBAgQIAAAQIECBAgQIAAAQIECBAgQIAAAQIECBAgQIAAAQIECBAgQIAAAQIECBAgQIAAAQIECBAgQIAAAQIECBAgQIAAAQIECBAgQIAAAQIECBAgQIAAAQIECBAgQIAAAQIECBAgQIAAAQIECBAgQIAAAQIECBAgQIAAAQIECBAgQIAAAQIECBAgQIAAAQIECBAgQIAAAQIECBAgQIAAAQIECBAgQIAAAQIECBAgQIAAAQIECBAgQIAAAQIECBAgQIAAAQIECBAgQIAAAQIECBAgQIAAAQIECBAgQIAAAQIECBAgQIAAAQIECBAgQIAAAQIECBAgQIAAAQIECBAgQIAAAQIECBAgQIAAAQIECBAgQIAAAQIECBAgQIAAAQIECBAgQIAAAQIECBAgQIAAAQIECBAgQIAAAQIECBAgQIAAAQIECBAgQIAAAQIECBAgQIAAAQIECBAgQIAAAQIECBAgQIAAAQIECBAgQIAAAQIECBAgQIAAAQIECBAgQIAAAQIECBAgQIAAAQIECBAgQIAAAQIECBAgQIAAAQIECBAgQIAAAQIECBAgQIAAAQIECBAgQIAAAQIECBAgQIAAAQIECBAgQIAAAQIECBAgQIAAAQIECBAgQIAAAQIECBAgQIAAAQIECBAgQIAAAQIECBAgQIAAAQIECBAgQIAAAQIECBAgQIAAAQIECBAgQIAAAQIECBAgQIAAAQIECBAgQIAAAQIECBAgQIAAAQIECBAgQIAAAQIECBAgQIAAAQIECBAgQIAAAQIECBAgQIAAAQIECBAgQIAAAQIECBAgQIAAAQIECBAgQIAAAQIECBAgQIAAAQIECBAgQIAAAQIECBAgQIAAAQIECBAgQIAAAQIECBAgQIAAAQIECBAgQIAAAQIECBAgQIAAAQIECBAgQIAAAQIECBAgQIAAAQIECBAgQIAAAQIECBAgQIAAAQIECBAgQIAAAQIECBAgQIAAAQIECBAgQIAAAQIECBAgQIAAAQIECBAgQIAAAQIECBAgQIAAAQIECBAgQIAAAQIECBAgQIAAAQIECBAgQIAAAQIECBAgQIAAAQIECBAgQIAAAQIECBAgQIAAAQIECBAgQIAAAQIECBAgQIAAAQIECBAgQIAAAQIECBAgQIAAAQIECBAgQIAAAQIECBAgQIAAAQIECBAgQIAAAQIECBAgQIAAAQIECBAgQIAAAQIECBAgQIAAAQIECBAgQIAAAQIECBAgQIAAAQIECBAgQIAAAQIECBAgQIAAAQIECBAgQIAAAQIECBAgQIAAAQIECBAgQIAAAQIECBAgQIAAAQIECBAgQIAAAQIECBAgQIAAAQIECBAgQIAAAQIECBAgQIAAAQIECBAgQIAAAQIECBAgQIAAAQIECBAgQIAAAQIECBAgQIAAAQIECBAgQIAAAQIECBAgQIAAAQIECBAgQIAAAQIECBAgQIAAAQIECBAgQIAAAQIECBAgQIAAAQIECBAgQIAAAQIECBAgQIAAAQIECBAgQIAAAQIECBAgQIAAAQIECBAgQIAAAQIECBAgQIAAAQIECBAgQIAAAQIECBAgQIAAAQIECBAgQIAAAQIECBAgQIAAAQIECBAgQIAAAQIECBAgQIAAAQIECBAgQIAAAQIECBAgQIAAAQIECBAgQIAAAQIECBAgQIAAAQIECBAgQIAAAQIECBAgQIAAAQIECBAgQIAAAQIECBAgQIAAAQIECBAgQIAAAQIECBAgQIAAAQIECBAgQIAAAQIECBAgQIAAAQIECBAgQIAAAQIECBAgQIAAAQIECBAgQIAAAQIECBAgQIAAAQIECBAgQIAAAQIECBAgQIAAAQIECBAgQIAAAQIECBAgQIAAAQIECBAgQIAAAQIECBAgQIAAAQIECBAgQIAAAQIECBAgQIAAAQIECBAgQIAAAQIECBAgQIAAAQIECBAgQIAAAQIECBAgQIAAAQIECBAgQIAAAQIECBAgQIAAAQIECBAgQIAAAQIECBAgQIAAAQIECBAgQIAAAQIECBAgQIAAAQIECBAgQIAAAQIECBAgQIAAAQIECBAgQIAAAQIECBAgQIAAAQIECBAgQIAAAQIECBAgQIAAAQIECBAgQIAAAQIECBAgQIAAAQIECBAgQIAAAQIECBAgQIAAAQIECBAgQIAAAQIECBAgQIAAAQIECBAgQIAAAQIECBAgQIAAAQIECBAgQIAAAQIECBAgQIAAAQIECBAgQIAAAQIECBAgQIAAAQIECBAgQIAAAQIECBAgQIAAAQIECBAgQIAAAQIECBAgQIAAAQIECBAgQIAAAQIECBAgQIAAAQIECBAgQIAAAQIECBAgQIAAAQIECBAgQIAAAQIECBAgQIAAAQIECBAgQIAAAQIECBAgQIAAAQIECBAgQIAAAQIECBAgQIAAAQIECBAgQIAAAQIECBAgQIAAAQIECBAgQIAAAQIECBAgQIAAAQIECBAgQIAAAQIECBAgQIAAAQIECBAgQIAAAQIECBAgQIAAAQIECBAgQIAAAQIECBAgQIAAAQIECBAgQIAAAQIECBAgQIAAAQIECBAgQIAAAQIECBAgQIAAAQIECBAgQIAAAQIECBAgQIAAAQIECBAgQIAAAQIECBAgQIAAAQIECBAgQIAAAQIECBAgQIAAAQIECBAgQIAAAQIECBAgQIAAAQIECBAgQIAAAQIECBAgQIAAAQIECBAgQIAAAQIECBAgQIAAAQIECBAgQIAAAQIECBAgQIAAAQIECBAgQIAAAQIECBAgQIAAAQIECBAgQIAAAQIECBAgQIAAAQIECBAgQIAAAQIECBAgQIAAAQIECBAgQIAAAQIECBAgQIAAAQIECBAgQIAAAQIECBAgQIAAAQIECBAgQIAAAQIECBAgQIAAAQIECBAgQIAAAQIECBAgQIAAAQIECBAgQIAAAQIECBAgQIAAAQIECBAgQIAAAQIECBAgQIAAAQIECBAgQIAAAQIECBAgQIAAAQIECBAgQIAAAQIECBAgQIAAAQIECBAgQIAAAQIECBAgQIAAAQIECBAgQIAAAQIECBAgQIAAAQIECBAgQIAAAQIECBAgQIAAAQIECBAgQIAAAQIECBAgQIAAAQIECBAgQIAAAQIECBAgQIAAAQIECBAgQIAAAQIECBAgQIAAAQIECBAgQIAAAQIECBAgQIAAAQIECBAgQIAAAQIECBAgQIAAAQIECBAgQIAAAQIECBAgQIAAAQIECBAgQIAAAQIECBAgQIAAAQIECBAgQIAAAQIECBAgQIAAAQIECBAgQIAAAQIECBAgQIAAAQIECBAgQIAAAQIECBAgQIAAAQIECBAgQIAAAQIECBAgQIAAAQIECBAgQIAAAQIECBAgQIAAAQIECBAgQIAAAQIECBAgQIAAAQIECBAgQIAAAQIECBAgQIAAAQIECBAgQIAAAQIECBAgQIAAAQIECBAgQIAAAQIECBAgQIAAAQIECBAgQIAAAQIECBAgQIAAAQIECBAgQIAAAQIECBAgQIAAAQIECBAgQIAAAQIECBAgQIAAAQIECBAgQIAAAQIECBAgQIAAAQIECBAgQIAAAQIECBAgQIAAAQIECBAgQIAAAQIECBAgQIvgkrAAAEAASURBVIAAAQIECBAgQIAAAQIECBAgQIAAAQIECBAgQIAAAQIECBAgQIAAAQIECBAgQIAAAQIECBAgQIAAAQIECBAgQIAAAQIECBAgQIAAAQIECBAgQIAAAQIECBAgQIAAAQIECBAgQIAAAQIECBAgQIAAAQIECBAgQIAAAQIECBAgQIAAAQIECBAgQIAAAQIECBAgQIAAAQIECBAgQIAAAQIECBAgQIAAAQIECBAgQIAAAQIECBAgQIAAAQIECBAgQIAAAQIECBAgQIAAAQIECBAgQIAAAQIECBAgQIAAAQIECBAgQIAAAQIECBAgQIAAAQIECBAgQIAAAQIECBAgQIAAAQIECBAgQIAAAQIECBAgQIAAAQIECBAgQIAAAQIECBAgQIAAAQIECBAgQIAAAQIECBAgQIAAAQIECBAgQIAAAQIECBAgQIAAAQIECBAgQIAAAQIECBAgQIAAAQIECBAgQIAAAQIECBAgQIAAAQIECBAgQIAAAQIECBAgQIAAAQIECBAgQIAAAQIECBAgQIAAAQIECBAgQIAAAQIECBAgQIAAAQIECBAgQIAAAQIECBAgQIAAAQIECBAgQIAAAQIECBAgQIAAAQIECBAgQIAAAQIECBAgQIAAAQIECBAgQIAAAQIECBAgQIAAAQIECBAgQIAAAQIECBAgQIAAAQIECBAgQIAAAQIECBAgQIAAAQIECBAgQIAAAQIECBAgQIAAAQIECBAgQIAAAQIECBAgQIAAAQIECBAgQIAAAQIECBAgQIAAAQIECBAgQIAAAQIECBAgQIAAAQIECBAgQIAAAQIECBAgQIAAAQIECBAgQIAAAQIECBAgQIAAAQIECBAgQIAAAQIECBAgQIAAAQIECBAgQIAAAQIECBAgQIAAAQIECBAgQIAAAQIECBAgQIAAAQIECBAgQIAAAQIECBAgQIAAAQIECBAgQIAAAQIECBAgQIAAAQIECBAgQIAAAQIECBAgQIAAAQIECBAgQIAAAQIECBAgQIAAAQIECBAgQIAAAQIECBAgQIAAAQIECBAgQIAAAQIECBAgQIAAAQIECBAgQIAAAQIECBAgQIAAAQIECBAgQIAAAQIECBAgQIAAAQIECBAgQIAAAQIECBAgQIAAAQIECBAgQIAAAQIECBAgQIAAAQIECBAgQIAAAQIECBAgQIAAAQIECBAgQIAAAQIECBAgQIAAAQIECBAgQIAAAQIECBAgQIAAAQIECBAgQIAAAQIECBAgQIAAAQIECBAgQIAAAQIECBAgQIAAAQIECBAgQIAAAQIECBAgQIAAAQIECBAgQIAAAQIECBAgQIAAAQIECBAgQIAAAQIECBAgQIAAAQIECBAgQIAAAQIECBAgQIAAAQIECBAgQIAAAQIECBAgQIAAAQIECBAgQIAAAQIECBAgQIAAAQIECBAgQIAAAQIECBAgQIAAAQIECBAgQIAAAQIECBAgQIAAAQIECBAgQIAAAQIECBAgQIAAAQIECBAgQIAAAQIECBAgQIAAAQIECBAgQIAAAQIECBAgQIAAAQIECBAgQIAAAQIECBAgQIAAAQIECBAgQIAAAQIECBAgQIAAAQIECBAgQIAAAQIECBAgQIAAAQIECBAgQIAAAQIECBAgQIAAAQIECBAgQIAAAQIECBAgQIAAAQIECBAgQIAAAQIECBAgQIAAAQIECBAgQIAAAQIECBAgQIAAAQIECBAgQIAAAQIECBAgQIAAAQIECBAgQIAAAQIECBAgQIAAAQIECBAgQIAAAQIECBAgQIAAAQIECBAgQIAAAQIECBAgQIAAAQIECBAgQIAAAQIECBAgQIAAAQIECBAgQIAAAQIECBAgQIAAAQIECBAgQIAAAQIECBAgQIAAAQIECBAgQIAAAQIECBAgQIAAAQIECBAgQIAAAQIECBAgQIAAAQIECBAgQIAAAQIECBAgQIAAAQIECBAgQIAAAQIECBAgQIAAAQIECBAgQIAAAQIECBAgQIAAAQIECBAgQIAAAQIECBAgQIAAAQIECBAgQIAAAQIECBAgQIAAAQIECBAgQIAAAQIECBAgQIAAAQIECBAgQIAAAQIECBAgQIAAAQIECBAgQIAAAQIECBAgQIAAAQIECBAgQIAAAQIECBAgQIAAAQIECBAgQIAAAQIECBAgQIAAAQIECBAgQIAAAQIECBAgQIAAAQIECBAgQIAAAQIECBAgQIAAAQIECBAgQIAAAQIECBAgQIAAAQIECBAgQIAAAQIECBAgQIAAAQIECBAgQIAAAQIECBAgQIAAAQIECBAgQIAAAQIECBAgQIAAAQIECBAgQIAAAQIECBAgQIAAAQIECBAgQIAAAQIECBAgQIAAAQIECBAgQIAAAQIECBAgQIAAAQIECBAgQIAAAQIECBAgQIAAAQIECBAgQIAAAQIECBAgQIAAAQIECBAgQIAAAQIECBAgQIAAAQIECBAgQIAAAQIECBAgQIAAAQIECBAgQIAAAQIECBAgQIAAAQIECBAgQIAAAQIECBAgQIAAAQIECBAgQIAAAQIECBAgQIAAAQIECBAgQIAAAQIECBAgQIAAAQIECBAgQIAAAQIECBAgQIAAAQIECBAgQIAAAQIECBAgQIAAAQIECBAgQIAAAQIECBAgQIAAAQIECBAgQIAAAQIECBAgQIAAAQIECBAgQIAAAQIECBAgQIAAAQIECBAgQIAAAQIECBAgQIAAAQIECBAgQIAAAQIECBAgQIAAAQIECBAgQIAAAQIECBAgQIAAAQIECBAgQIAAAQIECBAgQIAAAQIECBAgQIAAAQIECBAgQIAAAQIECBAgQIAAAQIECBAgQIAAAQIECBAgQIAAAQIECBAgQIAAAQIECBAgQIAAAQIECBAgQIAAAQIECBAgQIAAAQIECBAgQIAAAQIECBAgQIAAAQIECBAgQIAAAQIECBAgQIAAAQIECBAgQIAAAQIECBAgQIAAAQIECBAgQIAAAQIECBAgQIAAAQIECBAgQIAAAQIECBAgQIAAAQIECBAgQIAAAQIECBAgQIAAAQIECBAgQIAAAQIECBAgQIAAAQIECBAgQIAAAQIECBAgQIAAAQIECBAgQIAAAQIECBAgQIAAAQIECBAgQIAAAQIECBAgQIAAAQIECBAgQIAAAQIECBAgQIAAAQIECBAgQIAAAQIECBAgQIAAAQIECBAgQIAAAQIECBAgQIAAAQIECBAgQIAAAQIECBAgQIAAAQIECBAgQIAAAQIECBAgQIAAAQIECBAgQIAAAQIECBAgQIAAAQIECBAgQIAAAQIECBAgQIAAAQIECBAgQIAAAQIECBAgQIAAAQIECBAgQIAAAQIECBAgQIAAAQIECBAgQIAAAQIECBAgQIAAAQIECBAgQIAAAQIECBAgQIAAAQIECBAgQIAAAQIECBAgQIAAAQIECBAgQIAAAQIECBAgQIAAAQIECBAgQIAAAQIECBAgQIAAAQIECBAgQIAAAQIECBAgQIAAAQIECBAgQIAAAQIECBAgQIAAAQIECBAgQIAAAQIECBAgQIAAAQIECBAgQIAAAQIECBAgQIAAAQIECBAgQIAAAQIECBAgQIAAAQIECBAgQIAAAQIECBAgQIAAAQIECBAgQIAAAQIECBAgQIAAAQIECBAgQIAAAQIECBAgQIAAAQIECBAgQIAAAQIECBAgQIAAAQIECBAgQIAAAQIECBAgQIAAAQIECBAgQIAAAQIECBAgQIAAAQIECBAgQIAAAQIECBAgQIAAAQIECBAgQIAAAQIECBAgQIAAAQIECBAgQIAAAQIECBAgQIAAAQIECBAgQIAAAQIECBAgQIAAAQIECBAgQIAAAQIECBAgQIAAAQIECBAgQIAAAQIECBAgQIAAAQIECBAgQIAAAQIECBAgQIAAAQIECBAgQIAAAQIECBAgQIAAAQIECBAgQIAAAQIECBAgQIAAAQIECBAgQIAAAQIECBAgQIAAAQIECBAgQIAAAQIECBAgQIAAAQIECBAgQIAAAQIECBAgQIAAAQIECBAgQIAAAQIECBAgQIAAAQIECBAgQIAAAQIECBAgQIAAAQIECBAgQIAAAQIECBAgQIAAAQIECBAgQIAAAQIECBAgQIAAAQIECBAgQIAAAQIECBAgQIAAAQIECBAgQIAAAQIECBAgQIAAAQIECBAgQIAAAQIECBAgQIAAAQIECBAgQIAAAQIECBAgQIAAAQIECBAgQIAAAQIECBAgQIAAAQIECBAgQIAAAQIECBAgQIAAAQIECBAgQIAAAQIECBAgQIAAAQIECBAgQIAAAQIECBAgQIAAAQIECBAgQIAAAQIECBAgQIAAAQIECBAgQIAAAQIECBAgQIAAAQIECBAgQIAAAQIECBAgQIAAAQIECBAgQIAAAQIECBAgQIAAAQIECBAgQIAAAQIECBAgQIAAAQIECBAgQIAAAQIECBAgQIAAAQIECBAgQIAAAQIECBAgQIAAAQIECBAgQIAAAQIECBAgQIAAAQIECBAgQIAAAQIECBAgQIAAAQIECBAgQIAAAQIECBAgQIAAAQIECBAgQIAAAQIECBAgQIAAAQIECBAgQIAAAQIECBAgQIAAAQIECBAgQIAAAQIECBAgQIAAAQIECBAgQIAAAQIECBAgQIAAAQIECBAgQIAAAQIECBAgQIAAAQIECBAgQIAAAQIECBAgQIAAAQIECBAgQIAAAQIECBAgQIAAAQIECBAgQIAAAQIECBAgQIAAAQIECBAgQIAAAQIECBAgQIAAAQIECBAgQIAAAQIECBAgQIAAAQIECBAgQIAAAQIECBAgQIAAAQIECBAgQIAAAQIECBAgQIAAAQIECBAgQIAAAQIECBAgQIAAAQIECBAgQIAAAQIECBAgQIAAAQIECBAgQIAAAQIECBAgQIAAAQIECBAgQIAAAQIECBAgQIAAAQIECBAgQIAAAQIECBAgQIAAAQIECBAgQIAAAQIECBAgQIAAAQIECBAgQIAAAQIECBAgQIAAAQIECBAgQIAAAQIECBAgQIAAAQIECBAgQIAAAQIECBAgQIAAAQIECBAgQIAAAQIECBAgQIAAAQIECBAgQIAAAQIECBAgQIAAAQIECBAgQIAAAQIECBAgQIAAAQIECBAgQIAAAQIECBAgQIAAAQIECBAgQIAAAQIECBAgQIAAAQIECBAgQIAAAQIECBAgQIAAAQIECBAgQIAAAQIECBAgQIAAAQIECBAgQIAAAQIECBAgQIAAAQIECBAgQIAAAQIECBAgQIAAAQIECBAgQIAAAQIECBAgQIAAAQIECBAgQIAAAQIECBAgQIAAAQIECBAgQIAAAQIECBAgQIAAAQIECBAgQIAAAQIECBAgQIAAAQIECBAgQIAAAQIECBAgQIAAAQIECBAgQIAAAQIECBAgQIAAAQIECBAgQIAAAQIECBAgQIAAAQIECBAgQIAAAQIECBAgQIAAAQIECBAgQIAAAQIECBAgQIAAAQIECBAgQIAAAQIECBAgQIAAAQIECBAgQIAAAQIECBAgQIAAAQIECBAgQIAAAQIECBAgQIAAAQIECBAgQIAAAQIECBAgQIAAAQIECBAgQIAAAQIECBAgQIAAAQIECBAgQIAAAQIECBAgQIAAAQIECBAgQIAAAQIECBAgQIAAAQIECBAgQIAAAQIECBAgQIAAAQIECBAgQIAAAQIECBAgQIAAAQIECBAgQIAAAQIECBAgQIAAAQIECBAgQIAAAQIECBAgQIAAAQIECBAgQIAAAQIECBAgQIAAAQIECBAgQIAAAQIECBAgQIAAAQIECBAgQIAAAQIECBAgQIAAAQIECBAgQIAAAQIECBAgQIAAAQIECBAgQIAAAQIECBAgQIAAAQIECBAgQIAAAQIECBAgQIAAAQIECBAgQIAAAQIECBAgQIAAAQIECBAgQIAAAQIECBAgQIAAAQIECBAgQIAAAQIECBAgQIAAAQIECBAgQIAAAQIECBAgQIAAAQIECBAgQIAAAQIECBAgQIAAAQIECBAgQIAAAQIECBAgQIAAAQIECBAgQIAAAQIECBAgQIAAAQIECBAgQIAAAQIECBAgQIAAAQIECBAgQIAAAQIECBAgQIAAAQIECBAgQIAAAQIECBAgQIAAAQIECBAgQIAAAQIECBAgQIAAAQIECBAgQIAAAQIECBAgQIAAAQIECBAgQIAAAQIECBAgQIAAAQIECBAgQIAAAQIECBAgQIAAAQIECBAgQIAAAQIECBAgQIAAAQIECBAgQIAAAQIECBAgQIAAAQIECBAgQIAAAQIECBAgQIAAAQIECBAgQIAAAQIECBAgQIAAAQIECBAgQIAAAQIECBAgQIAAAQIECBAgQIAAAQIECBAgQIAAAQIECBAgQIAAAQIECBAgQIAAAQIECBAgQIAAAQIECBAgQIAAAQIECBAgQIAAAQIECBAgQIAAAQIECBAgQIAAAQIECBAgQIAAAQIECBAgQIAAAQIECBAgQIAAAQIECBAgQIAAAQIECBAgQIAAAQIECBAgQIAAAQIECBAgQIAAAQIECBAgQIAAAQIECBAgQIAAAQIECBAgQIAAAQIECBAgQIAAAQIECBAgQIAAAQIECBAgQIAAAQIECBAgQIAAAQIECBAgQIAAAQIECBAgQIAAAQIECBAgQIAAAQIECBAgQIAAAQIECBAgQIAAAQIECBAgQIAAAQIECBAgQIAAAQIECBAgQIAAAQIECBAgQIAAAQIECBAgQIAAAQIECBAgQIAAAQIECBAgQIAAAQIECBAgQIAAAQIECBAgQIAAAQIECBAgQIAAAQIECBAgQIAAAQIECBAgQIAAAQIECBAgQIAAAQIECBAgQIAAAQIECBAgQIAAAQIECBAgQIAAAQIECBAgQIAAAQIECBAgQIAAAQIECBAgQIAAAQIECBAgQIAAAQIECBAgQIAAAQIECBAgQIAAAQIECBAgQIAAAQIECBAgQIAAAQIECBAgQIAAAQIECBAgQIAAAQIECBAgQIAAAQIECBAgQIAAAQIECBAgQIAAAQIECBAgQIAAAQIECBAgQIAAAQIECBAgQIAAAQIECBAgQIAAAQIECBAgQIAAAQIECBAgQIAAAQIECBAgQIAAAQIECBAgQIAAAQIECBAgQIAAAQIECBAgQIAAAQIECBAgQIAAAQIECBAgQIAAAQIECBAgQIAAAQIECBAgQIAAAQIECBAgQIAAAQIECBAgQIAAAQIECBAgQIAAAQIECBAgQIAAAQIECBAgQIAAAQIECBAgQIAAAQIECBAgQIAAAQIECBAgQIAAAQIECBAgQIAAAQIECBAgQIAAAQIECBAgQIAAAQIECBAgQIAAAQIECBAgQIAAAQIECBAgQIAAAQIECBAgQIAAAQIECBAgQIAAAQIECBAgQIAAAQIECBAgQIAAAQIECBAgQIAAAQIECBAgQIAAAQIECBAgQIAAAQIECBAgQIAAAQIECBAgQIAAAQIECBAgQIAAAQIECBAgQIAAAQIECBAgQIAAAQIECBAgQIAAAQIECBAgQIAAAQIECBAgQIAAAQIECBAgQIAAAQIECBAgQIAAAQIECBAgQIAAAQIECBAgQIAAAQIECBAgQIAAAQIECBAgQIAAAQIECBAgQIAAAQIECBAgQIAAAQIECBAgQIAAAQIECBAgQIAAAQIECBAgQIAAAQIECBAgQIAAAQIECBAgQIAAAQIECBAgQIAAAQIECBAgQIAAAQIECBAgQIAAAQIECBAgQIAAAQIECBAgQIAAAQIECBAgQIAAAQIECBAgQIAAAQIECBAgQIAAAQIECBAgQIAAAQIECBAgQIAAAQIECBAgQIAAAQIECBAgQIAAAQIECBAgQIAAAQIECBAgQIAAAQIECBAgQIAAAQIECBAgQIAAAQIECBAgQIAAAQIECBAgQIAAAQIECBAgQIAAAQIECBAgQIAAAQIECBAgQIAAAQIECBAgQIAAAQIECBAgQIAAAQIECBAgQIAAAQIECBAgQIAAAQIECBAgQIAAAQIECBAgQIAAAQIECBAgQIAAAQIECBAgQIAAAQIECBAgQIAAAQIECBAgQIAAAQIECBAgQIAAAQIECBAgQIAAAQIECBAgQIAAAQIECBAgQIAAAQIECBAgQIAAAQIECBAgQIAAAQIECBAgQIAAAQIECBAgQIAAAQIECBAgQIAAAQIECBAgQIAAAQIECBAgQIAAAQIECBAgQIAAAQIECBAgQIAAAQIECBAgQIAAAQIECBAgQIAAAQIECBAgQIAAAQIECBAgQIAAAQIECBAgQIAAAQIECBAgQIAAAQIECBAgQIAAAQIECBAgQIAAAQIECBAgQIAAAQIECBAgQIAAAQIECBAgQIAAAQIECBAgQIAAAQIECBAgQIAAAQIECBAgQIAAAQIECBAgQIAAAQIECBAgQIAAAQIECBAgQIAAAQIECBAgQIAAAQIECBAgQIAAAQIECBAgQIAAAQIECBAgQIAAAQIECBAgQIAAAQIECBAgQIAAAQIECBAgQIAAAQIECBAgQIAAAQIECBAgQIAAAQIECBAgQIAAAQIECBAgQIAAAQIECBAgQIAAAQIECBAgQIAAAQIECBAgQIAAAQIECBAgQIAAAQIECBAgQIAAAQIECBAgQIAAAQIECBAgQIAAAQIECBAgQIAAAQIECBAgQIAAAQIECBAgQIAAAQIECBAgQIAAAQIECBAgQIAAAQIECBAgQIAAAQIECBAgQIAAAQIECBAgQIAAAQIECBAgQIAAAQIECBAgQIAAAQIECBAgQIAAAQIECBAgQIAAAQIECBAgQIAAAQIECBAgQIAAAQIECBAgQIAAAQIECBAgQIAAAQIECBAgQIAAAQIECBAgQIAAAQIECBAgQIAAAQIECBAgQIAAAQIECBAgQIAAAQIECBAgQIAAAQIECBAgQIAAAQIECBAgQIAAAQIECBAgQIAAAQIECBAgQIAAAQIECBAgQIAAAQIECBAgQIAAAQIECBAgQIAAAQIECBAgQIAAAQIECBAgQIAAAQIECBAgQIAAAQIECBAgQIAAAQIECBAgQIAAAQIECBAgQIAAAQIECBAgQIAAAQIECBAgQIAAAQIECBAgQIAAAQIECBAgQIAAAQIECBAgQIAAAQIECBAgQIAAAQIECBAgQIAAAQIECBAgQIAAAQIECBAgQIAAAQIECBAgQIAAAQIECBAgQIAAAQIECBAgQIAAAQIECBAgQIAAAQIECBAgQIAAAQIECBAgQIAAAQIECBAgQIAAAQIECBAgQIAAAQIECBAgQIAAAQIECBAgQIAAAQIECBAgQIAAAQIECBAgQIAAAQIECBAgQIAAAQIECBAgQIAAAQIECBAgQIAAAQIECBAgQIAAAQIECBAgQIAAAQIECBAgQIAAAQIECBAgQIAAAQIECBAgQIAAAQIECBAgQIAAAQIECBAgQIAAAQIECBAgQIAAAQIECBAgQIAAAQIECBAgQIAAAQIECBAgQIAAAQIECBAgQIAAAQIECBAgQIAAAQIECBAgQIAAAQIECBAgQIAAAQIECBAgQIAAAQIECBAgQIAAAQIECBAgQIAAAQIECBAgQIAAAQIECBAgQIAAAQIECBAgQIAAAQIECBAgQIAAAQIECBAgQIAAAQIECBAgQIAAAQIECBAgQIAAAQIECBAgQIAAAQIECBAgQIAAAQIECBAgQIAAAQIECBAgQIAAAQIECBAgQIAAAQIECBAgQIAAAQIECBAgQIAAAQIECBAgQIAAAQIECBAgQIAAAQIECBAgQIAAAQIECBAgQIAAAQIECBAgQIAAAQIECBAgQIAAAQIECBAgQIAAAQIECBAgQIAAAQIECBAgQIAAAQIECBAgQIAAAQIECBAgQIAAAQIECBAgQIAAAQIECBAgQIAAAQIECBAgQIAAAQIECBAgQIAAAQIECBAgQIAAAQIECBAgQIAAAQIECBAgQIAAAQIECBAgQIAAAQIECBAgQIAAAQIECBAgQIAAAQIECBAgQIAAAQIECBAgQIAAAQIECBAgQIAAAQIECBAgQIAAAQIECBAgQIAAAQIECBAgQIAAAQIECBAgQIAAAQIECBAgQIAAAQIECBAgQIAAAQIECBAgQIAAAQIECBAgQIAAAQIECBAgQIAAAQIECBAgQIAAAQIECBAgQIAAAQIECBAgQIAAAQIECBAgQIAAAQIECBAgQIAAAQIECBAgQIAAAQIECBAgQIAAAQIECBAgQIAAAQIECBAgQIAAAQIECBAgQIAAAQIECBAgQIAAAQIECBAgQIAAAQIECBAgQIAAAQIECBAgQIAAAQIECBAgQIAAAQIECBAgQIAAAQIECBAgQIAAAQIECBAgQIAAAQIECBAgQIAAAQIECBAgQIAAAQIECBAgQIAAAQIECBAgQIAAAQIECBAgQIAAAQIECBAgQIAAAQIECBAgQIAAAQIECBAgQIAAAQIECBAgQIAAAQIECBAgQIAAAQIECBAgQIAAAQIECBAgQIAAAQIECBAgQIAAAQIECBAgQIAAAQIECBAgQIAAAQIECBAgQIAAAQIECBAgQIAAAQIECBAgQIAAAQIECBAgQIAAAQIECBAgQIAAAQIECBAgQIAAAQIECBAgQIAAAQIECBAgQIAAAQIECBAgQIAAAQIECBAgQIAAAQIECBAgQIAAAQIECBAgQIAAAQIECBAgQIAAAQIECBAgQIAAAQIECBAgQIAAAQIECBAgQIAAAQIECBAgQIAAAQIECBAgQIAAAQIECBAgQIAAAQIECBAgQIAAAQIECBAgQIAAAQIECBAgQIAAAQIECBAgQIAAAQIECBAgQIAAAQIECBAgQIAAAQIECBAgQIAAAQIECBAgQIAAAQIECBAgQIAAAQIECBAgQIAAAQIECBAgQIAAAQIECBAgQIAAAQIECBAgQIAAAQIECBAgQIAAAQIECBAgQIAAAQIECBAgQIAAAQIECBAgQIAAAQIECBAgQIAAAQIECBAgQIAAAQIECBAgQIAAAQIECBAgQIAAAQIECBAgQIAAAQIECBAgQIAAAQIECBAgQIAAAQIECBAgQIAAAQIECBAgQIAAAQIECBAgQIAAAQIECBAgQIAAAQIECBAgQIAAAQIECBAgQIAAAQIECBAgQIAAAQIECBAgQIAAAQIECBAgQIAAAQIECBAgQIAAAQIECBAgQIAAAQIECBAgQIAAAQIECBAgQIAAAQIECBAgQIAAAQIECBAgQIAAAQIECBAgQIAAAQIECBAgQIAAAQIECBAgQIAAAQIECBAgQIAAAQIECBAgQIAAAQIECBAgQIAAAQIECBAgQIAAAQIECBAgQIAAAQIECBAgQIAAAQIECBAgQIAAAQIECBAgQIAAAQIECBAgQIAAAQIECBAgQIAAAQIECBAgQIAAAQIECBAgQIAAAQIECBAgQIAAAQIECBAgQIAAAQIECBAgQIAAAQIECBAgQIAAAQIECBAgQIAAAQIECBAgQIAAAQIECBAgQIAAAQIECBAgQIAAAQIECBAgQIAAAQIECBAgQIAAAQIECBAgQIAAAQIECBAgQIAAAQIECBAgQIAAAQIECBAgQIAAAQIECBAgQIAAAQIECBAgQIAAAQIECBAgQIAAAQIECBAgQIAAAQIECBAgQIAAAQIECBAgQIAAAQIECBAgQIAAAQIECBAgQIAAAQIECBAgQIAAAQIECBAgQIAAAQIECBAgQIAAAQIECBAgQIAAAQIECBAgQIAAAQIECBAgQIAAAQIECBAgQIAAAQIECBAgQIAAAQIECBAgQIAAAQIECBAgQIAAAQIECBAgQIAAAQIECBAgQIAAAQIECBAgQIAAAQIECBAgQIAAAQIECBAgQIAAAQIECBAgQIAAAQIECBAgQIAAAQIECBAgQIAAAQIECBAgQIAAAQIECBAgQIAAAQIECBAgQIAAAQIECBAgQIAAAQIECBAgQIAAAQIECBAgQIAAAQIECBAgQIAAAQIECBAgQIAAAQIECBAgQIAAAQIECBAgQIAAAQIECBAgQIAAAQIECBAgQIAAAQIECBAgQIAAAQIECBAgQIAAAQIECBAgQIAAAQIECBAgQIAAAQIECBAgQIAAAQIECBAgQIAAAQIECBAgQIAAAQIECBAgQIAAAQIECBAgQIAAAQIECBAgQIAAAQIECBAgQIAAAQIECBAgQIAAAQIECBAgQIAAAQIECBAgQIAAAQIECBAgQIAAAQIECBAgQIAAAQIECBAgQIAAAQIECBAgQIAAAQIECBAgQIAAAQIECBAgQIAAAQIECBAgQIAAAQIECBAgQIAAAQIECBAgQIAAAQIECBAgQIAAAQIECBAgQIAAAQIECBAgQIAAAQIECBAgQIAAAQIECBAgQIAAAQIECBAgQIAAAQIECBAgQIAAAQIECBAgQIAAAQIECBAgQIAAAQIECBAgQIAAAQIECBAgQIAAAQIECBAgQIAAAQIECBAgQIAAAQIECBAgQIAAAQIECBAgQIAAAQIECBAgQIAAAQIECBAgQIAAAQIECBAgQIAAAQIECBAgQIAAAQIECBAgQIAAAQIECBAgQIAAAQIECBAgQIAAAQIECBAgQIAAAQIECBAgQIAAAQIECBAgQIAAAQIECBAgQIAAAQIECBAgQIAAAQIECBAgQIAAAQIECBAgQIAAAQIECBAgQIAAAQIECBAgQIAAAQIECBAgQIAAAQIECBAgQIAAAQIECBAgQIAAAQIECBAgQIAAAQIECBAgQIAAAQIECBAgQIAAAQIECBAgQIAAAQIECBAgQIAAAQIECBAgQIAAAQIECBAgQIAAAQIECBAgQIAAAQIECBAgQIAAAQIECBAgQIAAAQIECBAgQIAAAQIECBAgQOB/7NCBAAAAAACQ/2sjJDhw4MCBAwcOHDhw4MCBAwcOHDhw4MCBAwcOHDhw4MCBAwcOHDhw4MCBAwcOHDhw4MCBAwcOHDhw4MCBAwcOHDhw4MCBAwcOHDhw4MCBAwcOHDhw4MCBAwcOHDhw4MCBAwcOHDhw4MCBAwcOHDhw4MCBAwcOHDhw4MCBAwcOHDhw4MCBAwcOHDhw4MCBAwcOHDhw4MCBAwcOHDhw4MCBAwcOHDhw4MCBAwcOHDhw4MCBAwcOHDhw4MCBAwcOHDhw4MCBAwcOHDhw4MCBAwcOHDhw4MCBAwcOHDhw4MCBAwcOHDhw4MCBAwcOHDhw4MCBAwcOHDhw4MCBAwcOHDhw4MCBAwcOHDhw4MCBAwcOHDhw4MCBAwcOHDhw4MCBAwcOHDhw4MCBAwcOHDhw4MCBAwcOHDhw4MCBAwcOHDhw4MCBAwcOHDhw4MCBAwcOHDhw4MCBAwcOHDhw4MCBAwcOHDhw4MCBAwcOHDhw4MCBAwcOHDhw4MCBAwcOHDhw4MCBAwcOHDhw4MCBAwcOHDhw4MCBAwcOHDhw4MCBAwcOHDhw4MCBAwcOHDhw4MCBAwcOHDhw4MCBAwcOHDhw4MCBAwcOHDhw4MCBAwcOHDhw4MCBAwcOHDhw4MCBAwcOHDhw4MCBAwcOHDhw4MCBAwcOHDhw4MCBAwcOHDhw4MCBAwcOHDhw4MCBAwcOHDhw4MCBAwcOHDhw4MCBAwcOHDhw4MCBAwcOHDhw4MCBAwcOHDhw4MCBAwcOHDhw4MCBAwcOHDhw4MCBAwcOHDhw4MCBAwcOHDhw4MCBAwcOHDhw4MCBAwcOHDhw4MCBAwcOHDhw4MCBAwcOHDhw4MCBAwcOHDhw4MCBAwcOHDhw4MCBAwcOHDhw4MCBAwcOHDhw4MCBAwcOHDhw4MCBAwcOHDhw4MCBAwcOHDhw4MCBAwcOHDhw4MCBAwcOHDhw4MCBAwcOHDhw4MCBAwcOHDhw4MCBAwcOHDhw4MCBAwcOHDhw4MCBAwcOHDhw4MCBAwcOHDhw4MCBAwcOHDhw4MCBAwcOHDhw4MCBAwcOHDhw4MCBAwcOHDhw4MCBAwcOHDhw4MCBAwcOHDhw4MCBAwcOHDhw4MCBAwcOHDhw4MCBAwcOHDhw4MCBAwcOHDhw4MCBAwcOHDhw4MCBAwcOHDhw4MCBAwcOHDhw4MCBAwcOHDhw4MCBAwcOHDhw4MCBAwcOHDhw4MCBAwcOHDhw4MCBAwcOHDhw4MCBAwcOHDhw4MCBAwcOHDhw4MCBAwcOHDhw4MCBAwcOHDhw4MCBAwcOHDhw4MCBAwcOHDhw4MCBAwcOHDhw4MCBAwcOHDhw4MCBAwcOHDhw4MCBAwcOHDhw4MCBAwcOHDhw4MCBAwcOHDhw4MCBAwcOHDhw4MCBAwcOHDhw4MCBAwcOHDhw4MCBAwcOHDhw4MCBAwcOHDhw4MCBAwcOHDhw4MCBAwcOHDhw4MCBAwcOHDhw4MCBAwcOHDhw4MCBAwcOHDhw4MCBAwcOHDhw4MCBAwcOHDhw4MCBAwcOHDhw4MCBAwcOHDhw4MCBAwcOHDhw4MCBAwcOHDhw4MCBAwcOHDhw4MCBAwcOHDhw4MCBAwcOHDhw4MCBAwcOHDhw4MCBAwcOHDhw4MCBAwcOHDhw4MCBAwcOHDhw4MCBAwcOHDhw4MCBAwcOHDhw4MCBAwcOHDhw4MCBAwcOHDhw4MCBAwcOHDhw4MCBAwcOHDhw4MCBAwcOHDhw4MCBAwcOHDhw4MCBAwcOHDhw4MCBAwcOHDhw4MCBAwcOHDhw4MCBAwcOHDhw4MCBAwcOHDhw4MCBAwcOHDhw4MCBAwcOHDhw4MCBAwcOHDhw4MCBAwcOHDhw4MCBAwcOHDhw4MCBAwcOHDhw4MCBAwcOHDhw4MCBAwcOHDhw4MCBAwcOHDhw4MCBAwcOHDhw4MCBAwcOHDhw4MCBAwcOHDhw4MCBAwcOHDhw4MCBAwcOHDhw4MCBAwcOHDhw4MCBAwcOHDhw4MCBAwcOHDhw4MCBAwcOHDhw4MCBAwcOHDhw4MCBAwcOHDhw4MCBAwcOHDhw4MCBAwcOHDhw4MCBAwcOHDhw4MCBAwcOHDhw4MCBAwcOHDhw4MCBAwcOHDhw4MCBAwcOHDhw4MCBAwcOHDhw4MCBAwcOHDhw4MCBAwcOHDhw4MCBAwcOHDhw4MCBAwcOHDhw4MCBAwcOHDhw4MCBAwcOHDhw4MCBAwcOHDhw4MCBAwcOHDhw4MCBAwcOHDhw4MCBAwcOHDhw4MCBAwcOHDhw4MCBAwcOHDhw4MCBAwcOHDhw4MCBAwcOHDhw4MCBAwcOHDhw4MCBAwcOHDhw4MCBAwcOHDhw4MCBAwcOHDhw4MCBAwcOHDhw4MCBAwcOHDhw4MCBAwcOHDhw4MCBAwcOHDhw4MCBAwcOHDhw4MCBAwcOHDhw4MCBAwcOHDhw4MCBAwcOHDhw4MCBAwcOHDhw4MCBAwcOHDhw4MCBAwcOHDhw4MCBAwcOHDhw4MCBAwcOHDhw4MCBAwcOHDhw4MCBAwcOHDhw4MCBAwcOHDhw4MCBAwcOHDhw4MCBAwcOHDhw4MCBAwcOHDhw4MCBAwcOHDhw4MCBAwcOHDhw4MCBAwcOHDhw4MCBAwcOHDhw4MCBAwcOHDhw4MCBAwcOHDhw4MCBAwcOHDhw4MCBAwcOHDhw4MCBAwcOHDhw4MCBAwcOHDhw4MCBAwcOHDhw4MCBAwcOHDhw4MCBAwcOHDhw4MCBAwcOHDhw4MCBAwcOHDhw4MCBAwcOHDhw4MCBAwcOHDhw4MCBAwcOHDhw4MCBAwcOHDhw4MCBAwcOHDhw4MCBAwcOHDhw4MCBAwcOHDhw4MCBAwcOHDhw4MCBAwcOHDhw4MCBAwcOHDhw4MCBAwcOHDhw4MCBAwcOHDhw4MCBAwcOHDhw4MCBAwcOHDhw4MCBAwcOHDhw4MCBAwcOHDhw4MCBAwcOHDhw4MCBAwcOHDhw4MCBAwcOHDhw4MCBAwcOHDhw4MCBAwcOHDhw4MCBAwcOHDhw4MCBAwcOHDhw4MCBAwcOHDhw4MCBAwcOHDhw4MCBAwcOHDhw4MCBAwcOHDhw4MCBAwcOHDhw4MCBAwcOHDhw4MCBAwcOHDhw4MCBAwcOHDhw4MCBAwcOHDhw4MCBAwcOHDhw4MCBAwcOHDhw4MCBAwcOHDhw4MCBAwcOHDhw4MCBAwcOHDhw4MCBAwcOHDhw4MCBAwcOHDhw4MCBAwcOHDhw4MCBAwcOHDhw4MCBAwcOHDhw4MCBAwcOHDhw4MCBAwcOHDhw4MCBAwcOHDhw4MCBAwcOHDhw4MCBAwcOHDhw4MCBAwcOHDhw4MCBAwcOHDhw4MCBAwcOHDhw4MCBAwcOHDhw4MCBAwcOHDhw4MCBAwcOHDhw4MCBAwcOHDhw4MCBAwcOHDhw4MCBAwcOHDhw4MCBAwcOHDhw4MCBAwcOHDhw4MCBAwcOHDhw4MCBAwcOHDhw4MCBAwcOHDhw4MCBAwcOHDhw4MCBAwcOHDhw4MCBAwcOHDhw4MCBAwcOHDhw4MCBAwcOHDhw4MCBAwcOHDhw4MCBAwcOHDhw4MCBAwcOHDhw4MCBAwcOHDhw4MCBAwcOHDhw4MCBAwcOHDhw4MCBAwcOHDhw4MCBAwcOHDhw4MCBAwcOHDhw4MCBAwcOHDhw4MCBAwcOHDhw4MCBAwcOHDhw4MCBAwcOHDhw4MCBAwcOHDhw4MCBAwcOHDhw4MCBAwcOHDhw4MCBAwcOHDhw4MCBAwcOHDhw4MCBAwcOHDhw4MCBAwcOHDhw4MCBAwcOHDhw4MCBAwcOHDhw4MCBAwcOHDhw4MCBAwcOHDhw4MCBAwcOHDhw4MCBAwcOHDhw4MCBAwcOHDhw4MCBAwcOHDhw4MCBAwcOHDhw4MCBAwcOHDhw4MCBAwcOHDhw4MCBAwcOHDhw4MCBAwcOHDhw4MCBAwcOHDhw4MCBAwcOHDhw4MCBAwcOHDhw4MCBAwcOHDhw4MCBAwcOHDhw4MCBAwcOHDhw4MCBAwcOHDhw4MCBAwcOHDhw4MCBAwcOHDhw4MCBAwcOHDhw4MCBAwcOHDhw4MCBAwcOHDhw4MCBAwcOHDhw4MCBAwcOHDhw4MCBAwcOHDhw4MCBAwcOHDhw4MCBAwcOHDhw4MCBAwcOHDhw4MCBAwcOHDhw4MCBAwcOHDhw4MCBAwcOHDhw4MCBAwcOHDhw4MCBAwcOHDhw4MCBAwcOHDhw4MCBAwcOHDhw4MCBAwcOHDhw4MCBAwcOHDhw4MCBAwcOHDhw4MCBAwcOHDhw4MCBAwcOHDhw4MCBAwcOHDhw4MCBAwcOHDhw4MCBAwcOHDhw4MCBAwcOHDhw4MCBAwcOHDhw4MCBAwcOHDhw4MCBAwcOHDhw4MCBAwcOHDhw4MCBAwcOHDhw4MCBAwcOHDhw4MCBAwcOHDhw4MCBAwcOHDhw4MCBAwcOHDhw4MCBAwcOHDhw4MCBAwcOHDhw4MCBAwcOHDhw4MCBAwcOHDhw4MCBAwcOHDhw4MCBAwcOHDhw4MCBAwcOHDhw4MCBAwcOHDhw4MCBAwcOHDhw4MCBAwcOHDhw4MCBAwcOHDhw4MCBAwcOHDhw4MCBAwcOHDhw4MCBAwcOHDhw4MCBAwcOHDhw4MCBAwcOHDhw4MCBAwcOHDhw4MCBAwcOHDhw4MCBAwcOHDhw4MCBAwcOHDhw4MCBAwcOHDhw4MCBAwcOHDhw4MCBAwcOHDhw4MCBAwcOHDhw4MCBAwcOHDhw4MCBAwcOHDhw4MCBAwcOHDhw4MCBAwcOHDhw4MCBAwcOHDhw4MCBAwcOHDhw4MCBAwcOHDhw4MCBAwcOHDhw4MCBAwcOHDhw4MCBAwcOHDhw4MCBAwcOHDhw4MCBAwcOHDhw4MCBAwcOHDhw4MCBAwcOHDhw4MCBAwcOHDhw4MCBAwcOHDhw4MCBAwcOHDhw4MCBAwcOHDhw4MCBAwcOHDhw4MCBAwcOHDhw4MCBAwcOHDhw4MCBAwcOHDhw4MCBAwcOHDhw4MCBAwcOHDhw4MCBAwcOHDhw4MCBAwcOHDhw4MCBAwcOHDhw4MCBAwcOHDhw4MCBAwcOHDhw4MCBAwcOHDhw4MCBAwcOHDhw4MCBAwcOHDhw4MCBAwcOHDhw4MCBAwcOHDhw4MCBAwcOHDhw4MCBAwcOHDhw4MCBAwcOHDhw4MCBAwcOHDhw4MCBAwcOHDhw4MCBAwcOHDhw4MCBAwcOHDhw4MCBAwcOHDhw4MCBAwcOHDhw4MCBAwcOHDhw4MCBAwcOHDhw4MCBAwcOHDhw4MCBAwcOHDhw4MCBAwcOHDhw4MCBAwcOHDhw4MCBAwcOHDhw4MCBAwcOHDhw4MCBAwcOHDhw4MCBAwcOHDhw4MCBAwcOHDhw4MCBAwcOHDhw4MCBAwcOHDhw4MCBAwcOHDhw4MCBAwcOHDhw4MCBAwcOHDhw4MCBAwcOHDhw4MCBAwcOHDhw4MCBAwcOHDhw4MCBAwcOHDhw4MCBAwcOHDhw4MCBAwcOHDhw4MCBAwcOHDhw4MCBAwcOHDhw4MCBAwcOHDhw4MCBAwcOHDhw4MCBAwcOHDhw4MCBAwcOHDhw4MCBAwcOHDhw4MCBAwcOHDhw4MCBAwcOHDhw4MCBAwcOHDhw4MCBAwcOHDhw4MCBAwcOHDhw4MCBAwcOHDhw4MCBAwcOHDhw4MCBAwcOHDhw4MCBAwcOHDhw4MCBAwcOHDhw4MCBAwcOHDhw4MCBAwcOHDhw4MCBAwcOHDhw4MCBAwcOHDhw4MCBAwcOHDhw4MCBAwcOHDhw4MCBAwcOHDhw4MCBAwcOHDhw4MCBAwcOHDhw4MCBAwcOHDhw4MCBAwcOHDhw4MCBAwcOHDhw4MCBAwcOHDhw4MCBAwcOHDhw4MCBAwcOHDhw4MCBAwcOHDhw4MCBAwcOHDhw4MCBAwcOHDhw4MCBAwcOHDhw4MCBAwcOHDhw4MCBAwcOHDhw4MCBAwcOHDhw4MCBAwcOHDhw4MCBAwcOHDhw4MCBAwcOHDhw4MCBAwcOHDhw4MCBAwcOHDhw4MCBAwcOHDhw4MCBAwcOHDhw4MCBAwcOHDhw4MCBAwcOHDhw4MCBAwcOHDhw4MCBAwcOHDhw4MCBAwcOHDhw4MCBAwcOHDhw4MCBAwcOHDhw4MCBAwcOHDhw4MCBAwcOHDhw4MCBAwcOHDhw4MCBAwcOHDhw4MCBAwcOHDhw4MCBAwcOHDhw4MCBAwcOHDhw4MCBAwcOHDhw4MCBAwcOHDhw4MCBAwcOHDhw4MCBAwcOHDhw4MCBAwcOHDhw4MCBAwcOHDhw4MCBAwcOHDhw4MCBAwcOHDhw4MCBAwcOHDhw4MCBAwcOHDhw4MCBAwcOHDhw4MCBAwcOHDhw4MCBAwcOHDhw4MCBAwcOHDhw4MCBAwcOHDhw4MCBAwcOHDhw4MCBAwcOHDhw4MCBAwcOHDhw4MCBAwcOHDhw4MCBAwcOHDhw4MCBAwcOHDhw4MCBAwcOHDhw4MCBAwcOHDhw4MCBAwcOHDhw4MCBAwcOHDhw4MCBAwcOHDhw4MCBAwcOHDhw4MCBAwcOHDhw4MCBAwcOHDhw4MCBAwcOHDhw4MCBAwcOHDhw4MCBAwcOHDhw4MCBAwcOHDhw4MCBAwcOHDhw4MCBAwcOHDhw4MCBAwcOHDhw4MCBAwcOHDhw4MCBAwcOHDhw4MCBAwcOHDhw4MCBAwcOHDhw4MCBAwcOHDhw4MCBAwcOHDhw4MCBAwcOHDhw4MCBAwcOHDhw4MCBAwcOHDhw4MCBAwcOHDhw4MCBAwcOHDhw4MCBAwcOHDhw4MCBAwcOHDhw4MCBAwcOHDhw4MCBAwcOHDhw4MCBAwcOHDhw4MCBAwcOHDhw4MCBAwcOHDhw4MCBAwcOHDhw4MCBAwcOHDhw4MCBAwcOHDhw4MCBAwcOHDhw4MCBAwcOHDhw4MCBAwcOHDhw4MCBAwcOHDhw4MCBAwcOHDhw4MCBAwcOHDhw4MCBAwcOHDhw4MCBAwcOHDhw4MCBAwcOHDhw4MCBAwcOHDhw4MCBAwcOHDhw4MCBAwcOHDhw4MCBAwcOHDhw4MCBAwcOHDhw4MCBAwcOHDhw4MCBAwcOHDhw4MCBAwcOHDhw4MCBAwcOHDhw4MCBAwcOHDhw4MCBAwcOHDhw4MCBAwcOHDhw4MCBAwcOHDhw4MCBAwcOHDhw4MCBAwcOHDhw4MCBAwcOHDhw4MCBAwcOHDhw4MCBAwcOHDhw4MCBAwcOHDhw4MCBAwcOHDhw4MCBAwcOHDhw4MCBAwcOHDhw4MCBAwcOHDhw4MCBAwcOHDhw4MCBAwcOHDhw4MCBAwcOHDhw4MCBAwcOHDhw4MCBAwcOHDhw4MCBAwcOHDhw4MCBAwcOHDhw4MCBAwcOHDhw4MCBAwcOHDhw4MCBAwcOHDhw4MCBAwcOHDhw4MCBAwcOHDhw4MCBAwcOHDhw4MCBAwcOHDhw4MCBAwcOHDhw4MCBAwcOHDhw4MCBAwcOHDhw4MCBAwcOHDhw4MCBAwcOHDhw4MCBAwcOHDhw4MCBAwcOHDhw4MCBAwcOHDhw4MCBAwcOHDhw4MCBAwcOHDhw4MCBAwcOHDhw4MCBAwcOHDhw4MCBAwcOHDhw4MCBAwcOHDhw4MCBAwcOHDhw4MCBAwcOHDhw4MCBAwcOHDhw4MCBAwcOHDhw4MCBAwcOHDhw4MCBAwcOHDhw4MCBAwcOHDhw4MCBAwcOHDhw4MCBAwcOHDhw4MCBAwcOHDhw4MCBAwcOHDhw4MCBAwcOHDhw4MCBAwcOHDhw4MCBAwcOHDhw4MCBAwcOHDhw4MCBAwcOHDhw4MCBAwcOHDhw4MCBAwcOHDhw4MCBAwcOHDhw4MCBAwcOHDhw4MCBAwcOHDhw4MCBAwcOHDhw4MCBAwcOHDhw4MCBAwcOHDhw4MCBAwcOHDhw4MCBAwcOHDhw4MCBAwcOHDhw4MCBAwcOHDhw4MCBAwcOHDhw4MCBAwcOHDhw4MCBAwcOHDhw4MCBAwcOHDhw4MCBAwcOHDhw4MCBAwcOHDhw4MCBAwcOHDhw4MCBAwcOHDhw4MCBAwcOHDhw4MCBAwcOHDhw4MCBAwcOHDhw4MCBAwcOHDhw4MCBAwcOHDhw4MCBAwcOHDhw4MCBAwcOHDhw4MCBAwcOHDhw4MCBAwcOHDhw4MCBAwcOHDhw4MCBAwcOHDhw4MCBAwcOHDhw4MCBAwcOHDhw4MCBAwcOHDhw4MCBAwcOHDhw4MCBAwcOHDhw4MCBAwcOHDhw4MCBAwcOHDhw4MCBAwcOHDhw4MCBAwcOHDhw4MCBAwcOHDhw4MCBAwcOHDhw4MCBAwcOHDhw4MCBAwcOHDhw4MCBAwcOHDhw4MCBAwcOHDhw4MCBAwcOHDhw4MCBAwcOHDhw4MCBAwcOHDhw4MCBAwcOHDhw4MCBAwcOHDhw4MCBAwcOHDhw4MCBAwcOHDhw4MCBAwcOHDhw4MCBAwcOHDhw4MCBAwcOHDhw4MCBAwcOHDhw4MCBAwcOHDhw4MCBAwcOHDhw4MCBAwcOHDhw4MCBAwcOHDhw4MCBAwcOHDhw4MCBAwcOHDhw4MCBAwcOHDhw4MCBAwcOHDhw4MCBAwcOHDhw4MCBAwcOHDhw4MCBAwcOHDhw4MCBAwcOHDhw4MCBAwcOHDhw4MCBAwcOHDhw4MCBAwcOHDhw4MCBAwcOHDhw4MCBAwcOHDhw4MCBAwcOHDhw4MCBAwcOHDhw4MCBAwcOHDhw4MCBAwcOHDhw4MCBAwcOHDhw4MCBAwcOHDhw4MCBAwcOHDhw4MCBAwcOHDhw4MCBAwcOHDhw4MCBAwcOHDhw4MCBAwcOHDhw4MCBAwcOHDhw4MCBAwcOHDhw4MCBAwcOHDhw4MCBAwcOHDhw4MCBAwcOHDhw4MCBAwcOHDhw4MCBAwdzDxjFAAA7dklEQVQOHDhw4MCBAwcOHDhw4MCBAwcOHDhw4MCBAwcOHDhw4MCBAwcOHDhw4MCBAwcOHDhw4MCBAwcOHDhw4MCBAwcOHDhw4MCBAwcOHDhw4MCBAwcOHDhw4MCBAwcOHDhw4MCBAwcOHDhw4MCBAwcOHDhw4MCBAwcOHDhw4MCBAwcOHDhw4MCBAwcOHDhw4MCBAwcOHDhw4MCBAwcOHDhw4MCBAwcOHDhw4MCBAwcOHDhw4MCBAwcOHDhw4MCBAwcOHDhw4MCBAwcOHDhw4MCBAwcOHDhw4MCBAwcOHDhw4MCBAwcOHDhw4MCBAwcOHDhw4MCBAwcOHDhw4MCBAwcOHDhw4MCBAwcOHDhw4MCBAwcOHDhw4MCBAwcOHDhw4MCBAwcOHDhw4MCBAwcOHDhw4MCBAwcOHDhw4MCBAwcOHDhw4MCBAwcOHDhw4MCBAwcOHDhw4MCBAwcOHDhw4MCBAwcOHDhw4MCBAwcOHDhw4MCBAwcOHDhw4MCBAwcOHDhw4MCBAwcOHDhw4MCBAwcOHDhw4MCBAwcOHDhw4MCBAwcOHDhw4MCBAwcOHDhw4MCBAwcOHDhw4MCBAwcOHDhw4MCBAwcOHDhw4MCBAwcOHDhw4MCBAwcOHDhw4MCBAwcOHDhw4MCBAwcOHDhw4MCBAwcOHDhw4MCBAwcOHDhw4MCBAwcOHDhw4MCBAwcOHDhw4MCBAwcOHDhw4MCBAwcOHDhw4MCBAwcOHDhw4MCBAwcOHDhw4MCBAwcOHDhw4MCBAwcOHDhw4MCBAwcOHDhw4MCBAwcOHDhw4MCBAwcOHDhw4MCBAwcOHDhw4MCBAwcOHDhw4MCBAwcOHDhw4MCBAwcOHDhw4MCBAwcOHDhw4MCBAwcOHDhw4MCBAwcOHDhw4MCBAwcOHDhw4MCBAwcOHDhw4MCBAwcOHDhw4MCBAwcOHDhw4MCBAwcOHDhw4MCBAwcOHDhw4MCBAwcOHDhw4MCBAwcOHDhw4MCBAwcOHDhw4MCBAwcOHDhw4MCBAwcOHDhw4MCBAwcOHDhw4MCBAwcOHDhw4MCBAwcOHDhw4MCBAwcOHDhw4MCBAwcOHDhw4MCBAwcOHDhw4MCBAwcOHDhw4MCBAwcOHDhw4MCBAwcOHDhw4MCBAwcOHDhw4MCBAwcOHDhw4MCBAwcOHDhw4MCBAwcOHDhw4MCBAwcOHDhw4MCBAwcOHDhw4MCBAwcOHDhw4MCBAwcOHDhw4MCBAwcOHDhw4MCBAwcOHDhw4MCBAwcOHDhw4MCBAwcOHDhw4MCBAwcOHDhw4MCBAwcOHDhw4MCBAwcOHDhw4MCBAwcOHDhw4MCBAwcOHDhw4MCBAwcOHDhw4MCBAwcOHDhw4MCBAwcOHDhw4MCBAwcOHDhw4MCBAwcOHDhw4MCBAwcOHDhw4MCBAwcOHDhw4MCBAwcOHDhw4MCBAwcOHDhw4MCBAwcOHDhw4MCBAwcOHDhw4MCBAwcOHDhw4MCBAwcOHDhw4MCBAwcOHDhw4MCBAwcOHDhw4MCBAwcOHDhw4MCBAwcOHDhw4MCBAwcOHDhw4MCBAwcOHDhw4MCBAwcOHDhw4MCBAwcOHDhw4MCBAwcOHDhw4MCBAwcOHDhw4MCBAwcOHDhw4MCBAwcOHDhw4MCBAwcOHDhw4MCBAwcOHDhw4MCBAwcOHDhw4MCBAwcOHDhw4MCBAwcOHDhw4MCBAwcOHDhw4MCBAwcOHDhw4MCBAwcOHDhw4MCBAwcOHDhw4MCBAwcOHDhw4MCBAwcOHDhw4MCBAwcOHDhw4MCBAwcOHDhw4MCBAwcOHDhw4MCBAwcOHDhw4MCBAwcOHDhw4MCBAwcOHDhw4MCBAwcOHDhw4MCBAwcOHDhw4MCBAwcOHDhw4MCBAwcOHDhw4MCBAwcOHDhw4MCBAwcOHDhw4MCBAwcOHDhw4MCBAwcOHDhw4MCBAwcOHDhw4MCBAwcOHDhw4MCBAwcOHDhw4MCBAwcOHDhw4MCBAwcOHDhw4MCBAwcOHDhw4MCBAwcOHDhw4MCBAwcOHDhw4MCBAwcOHDhw4MCBAwcOHDhw4MCBAwcOHDhw4MCBAwcOHDhw4MCBAwcOHDhw4MCBAwcOHDhw4MCBAwcOHDhw4MCBAwcOHDhw4MCBAwcOHDhw4MCBAwcOHDhw4MCBAwcOHDhw4MCBAwcOHDhw4MCBAwcOHDhw4MCBAwcOHDhw4MCBAwcOHDhw4MCBAwcOHDhw4MCBAwcOHDhw4MCBAwcOHDhw4MCBAwcOHDhw4MCBAwcOHDhw4MCBAwcOHDhw4MCBAwcOHDhw4MCBAwcOHDhw4MCBAwcOHDhw4MCBAwcOHDhw4MCBAwcOHDhw4MCBAwcOHDhw4MCBAwcOHDhw4MCBAwcOHDhw4MCBAwcOHDhw4MCBAwcOHDhw4MCBAwcOHDhw4MCBAwcOHDhw4MCBAwcOHDhw4MCBAwcOHDhw4MCBAwcOHDhw4MCBAwcOHDhw4MCBAwcOHDhw4MCBAwcOHDhw4MCBAwcOHDhw4MCBAwcOHDhw4MCBAwcOHDhw4MCBAwcOHDhw4MCBAwcOHDhw4MCBAwcOHDhw4MCBAwcOHDhw4MCBAwcOHDhw4MCBAwcOHDhw4MCBAwcOHDhw4MCBAwcOHDhw4MCBAwcOHDhw4MCBAwcOHDhw4MCBAwcOHDhw4MCBAwcOHDhw4MCBAwcOHDhw4MCBAwcOHDhw4MCBAwcOHDhw4MCBAwcOHDhw4MCBAwcOHDhw4MCBAwcOHDhw4MCBAwcOHDhw4MCBAwcOHDhw4MCBAwcOHDhw4MCBAwcOHDhw4MCBAwcOHDhw4MCBAwcOHDhw4MCBAwcOHDhw4MCBAwcOHDhw4MCBAwcOHDhw4MCBAwcOHDhw4MCBAwcOHDhw4MCBAwcOHDhw4MCBAwcOHDhw4MCBAwcOHDhw4MCBAwcOHDhw4MCBAwcOHDhw4MCBAwcOHDhw4MCBAwcOHDhw4MCBAwcOHDhw4MCBAwcOHDhw4MCBAwcOHDhw4MCBAwcOHDhw4MCBAwcOHDhw4MCBAwcOHDhw4MCBAwcOHDhw4MCBAwcOHDhw4MCBAwcOHDhw4MCBAwcOHDhw4MCBAwcOHDhw4MCBAwcOHDhw4MCBAwcOHDhw4MCBAwcOHDhw4MCBAwcOHDhw4MCBAwcOHDhw4MCBAwcOHDhw4MCBAwcOHDhw4MCBAwcOHDhw4MCBAwcOHDhw4MCBAwcOHDhw4MCBAwcOHDhw4MCBAwcOHDhw4MCBAwcOHDhw4MCBAwcOHDhw4MCBAwcOHDhw4MCBAwcOHDhw4MCBAwcOHDhw4MCBAwcOHDhw4MCBAwcOHDhw4MCBAwcOHDhw4MCBAwcOHDhw4MCBAwcOHDhw4MCBAwcOHDhw4MCBAwcOHDhw4MCBAwcOHDhw4MCBAwcOHDhw4MCBAwcOHDhw4MCBAwcOHDhw4MCBAwcOHDhw4MCBAwcOHDhw4MCBAwcOHDhw4MCBAwcOHDhw4MCBAwcOHDhw4MCBAwcOHDhw4MCBAwcOHDhw4MCBAwcOHDhw4MCBAwcOHDhw4MCBAwcOHDhw4MCBAwcOHDhw4MCBAwcOHDhw4MCBAwcOHDhw4MCBAwcOHDhw4MCBAwcOHDhw4MCBAwcOHDhw4MCBAwcOHDhw4MCBAwcOHDhw4MCBAwcOHDhw4MCBAwcOHDhw4MCBAwcOHDhw4MCBAwcOHDhw4MCBAwcOHDhw4MCBAwcOHDhw4MCBAwcOHDhw4MCBAwcOHDhw4MCBAwcOHDhw4MCBAwcOHDhw4MCBAwcOHDhw4MCBAwcOHDhw4MCBAwcOHDhw4MCBAwcOHDhw4MCBAwcOHDhw4MCBAwcOHDhw4MCBAwcOHDhw4MCBAwcOHDhw4MCBAwcOHDhw4MCBAwcOHDhw4MCBAwcOHDhw4MCBAwcOHDhw4MCBAwcOHDhw4MCBAwcOHDhw4MCBAwcOHDhw4MCBAwcOHDhw4MCBAwcOHDhw4MCBAwcOHDhw4MCBAwcOHDhw4MCBAwcOHDhw4MCBAwcOHDhw4MCBAwcOHDhw4MCBAwcOHDhw4MCBAwcOHDhw4MCBAwcOHDhw4MCBAwcOHDhw4MCBAwcOHDhw4MCBAwcOHDhw4MCBAwcOHDhw4MCBAwcOHDhw4MCBAwcOHDhw4MCBAwcOHDhw4MCBAwcOHDhw4MCBAwcOHDhw4MCBAwcOHDhw4MCBAwcOHDhw4MCBAwcOHDhw4MCBAwcOHDhw4MCBAwcOHDhw4MCBAwcOHDhw4MCBAwcOHDhw4MCBAwcOHDhw4MCBAwcOHDhw4MCBAwcOHDhw4MCBAwcOHDhw4MCBAwcOHDhw4MCBAwcOHDhw4MCBAwcOHDhw4MCBAwcOHDhw4MCBAwcOHDhw4MCBAwcOHDhw4MCBAwcOHDhw4MCBAwcOHDhw4MCBAwcOHDhw4MCBAwcOHDhw4MCBAwcOHDhw4MCBAwcOHDhw4MCBAwcOHDhw4MCBAwcOHDhw4MCBAwcOHDhw4MCBAwcOHDhw4MCBAwcOHDhw4MCBAwcOHDhw4MCBAwcOHDhw4MCBAwcOHDhw4MCBAwcOHDhw4MCBAwcOHDhw4MCBAwcOHDhw4MCBAwcOHDhw4MCBAwcOHDhw4MCBAwcOHDhw4MCBAwcOHDhw4MCBAwcOHDhw4MCBAwcOHDhw4MCBAwcOHDhw4MCBAwcOHDhw4MCBAwcOHDhw4MCBAwcOHDhw4MCBAwcOHDhw4MCBAwcOHDhw4MCBAwcOHDhw4MCBAwcOHDhw4MCBAwcOHDhw4MCBAwcOHDhw4MCBAwcOHDhw4MCBAwcOHDhw4MCBAwcOHDhw4MCBAwcOHDhw4MCBAwcOHDhw4MCBAwcOHDhw4MCBAwcOHDhw4MCBAwcOHDhw4MCBAwcOHDhw4MCBAwcOHDhw4MCBAwcOHDhw4MCBAwcOHDhw4MCBAwcOHDhw4MCBAwcOHDhw4MCBAwcOHDhw4MCBAwcOHDhw4MCBAwcOHDhw4MCBAwcOHDhw4MCBAwcOHDhw4MCBAwcOHDhw4MCBAwcOHDhw4MCBAwcOHDhw4MCBAwcOHDhw4MCBAwcOHDhw4MCBAwcOHDhw4MCBAwcOHDhw4MCBAwcOHDhw4MCBAwcOHDhw4MCBAwcOHDhw4MCBAwcOHDhw4MCBAwcOHDhw4MCBAwcOHDhw4MCBAwcOHDhw4MCBAwcOHDhw4MCBAwcOHDhw4MCBAwcOHDhw4MCBAwcOHDhw4MCBAwcOHDhw4MCBAwcOHDhw4MCBAwcOHDhw4MCBAwcOHDhw4MCBAwcOHDhw4MCBAwcOHDhw4MCBAwcOHDhw4MCBAwcOHDhw4MCBAwcOHDhw4MCBAwcOHDhw4MCBAwcOHDhw4MCBAwcOHDhw4MCBAwcOHDhw4MCBAwcOHDhw4MCBAwcOHDhw4MCBAwcOHDhw4MCBAwcOHDhw4MCBAwcOHDhw4MCBAwcOHDhw4MCBAwcOHDhw4MCBAwcOHDhw4MCBAwcOHDhw4MCBAwcOHDhw4MCBAwcOHDhw4MCBAwcOHDhw4MCBAwcOHDhw4MCBAwcOHDhw4MCBAwcOHDhw4MCBAwcOHDhw4MCBAwcOHDhw4MCBAwcOHDhw4MCBAwcOHDhw4MCBAwcOHDhw4MCBAwcOHDhw4MCBAwcOHDhw4MCBAwcOHDhw4MCBAwcOHDhw4MCBAwcOHDhw4MCBAwcOHDhw4MCBAwcOHDhw4MCBAwcOHDhw4MCBAwcOHDhw4MCBAwcOHDhw4MCBAwcOHDhw4MCBAwcOHDhw4MCBAwcOHDhw4MCBAwcOHDhw4MCBAwcOHDhw4MCBAwcOHDhw4MCBAwcOHDhw4MCBAwcOHDhw4MCBAwcOHDhw4MCBAwcOHDhw4MCBAwcOHDhw4MCBAwcOHDhw4MCBAwcOHDhw4MCBAwcOHDhw4MCBAwcOHDhw4MCBAwcOHDhw4MCBAwcOHDhw4MCBAwcOHDhw4MCBAwcOHDhw4MCBAwcOHDhw4MCBAwcOHDhw4MCBAwcOHDhw4MCBAwcOHDhw4MCBAwcOHDhw4MCBAwcOHDhw4MCBAwcOHDhw4MCBAwcOHDhw4MCBAwcOHDhw4MCBAwcOHDhw4MCBAwcOHDhw4MCBAwcOHDhw4MCBAwcOHDhw4MCBAwcOHDhw4MCBAwcOHDhw4MCBAwcOHDhw4MCBAwcOHDhw4MCBAwcOHDhw4MCBAwcOHDhw4MCBAwcOHDhw4MCBAwcOHDhw4MCBAwcOHDhw4MCBAwcOHDhw4MCBAwcOHDhw4MCBAwcOHDhw4MCBAwcOHDhw4MCBAwcOHDhw4MCBAwcOHDhw4MCBAwcOHDhw4MCBAwcOHDhw4MCBAwcOHDhw4MCBAwcOHDhw4MCBAwcOHDhw4MCBAwcOHDhw4MCBAwcOHDhw4MCBAwcOHDhw4MCBAwcOHDhw4MCBAwcOHDhw4MCBAwcOHDhw4MCBAwcOHDhw4MCBAwcOHDhw4MCBAwcOHDhw4MCBAwcOHDhw4MCBAwcOHDhw4MCBAwcOHDhw4MCBAwcOHDhw4MCBAwcOHDhw4MCBAwcOHDhw4MCBAwcOHDhw4MCBAwcOHDhw4MCBAwcOHDhw4MCBAwcOHDhw4MCBAwcOHDhw4MCBAwcOHDhw4MCBAwcOHDhw4MCBAwcOHDhw4MCBAwcOHDhw4MCBAwcOHDhw4MCBAwcOHDhw4MCBAwcOHDhw4MCBAwcOHDhw4MCBAwcOHDhw4MCBAwcOHDhw4MCBAwcOHDhw4MCBAwcOHDhw4MCBAwcOHDhw4MCBAwcOHDhw4MCBAwcOHDhw4MCBAwcOHDhw4MCBAwcOHDhw4MCBAwcOHDhw4MCBAwcOHDhw4MCBAwcOHDhw4MCBAwcOHDhw4MCBAwcOHDhw4MCBAwcOHDhw4MCBAwcOHDhw4MCBAwcOHDhw4MCBAwcOHDhw4MCBAwcOHDhw4MCBAwcOHDhw4MCBAwcOHDhw4MCBAwcOHDhw4MCBAwcOHDhw4MCBAwcOHDhw4MCBAwcOHDhw4MCBAwcOHDhw4MCBAwcOHDhw4MCBAwcOHDhw4MCBAwcOHDhw4MCBAwcOHDhw4MCBAwcOHDhw4MCBAwcOHDhw4MCBAwcOHDhw4MCBAwcOHDhw4MCBAwcOHDhw4MCBAwcOHDhw4MCBAwcOHDhw4MCBAwcOHDhw4MCBAwcOHDhw4MCBAwcOHDhw4MCBAwcOHDhw4MCBAwcOHDhw4MCBAwcOHDhw4MCBAwcOHDhw4MCBAwcOHDhw4MCBAwcOHDhw4MCBAwcOHDhw4MCBAwcOHDhw4MCBAwcOHDhw4MCBAwcOHDhw4MCBAwcOHDhw4MCBAwcOHDhw4MCBAwcOHDhw4MCBAwcOHDhw4MCBAwcOHDhw4MCBAwcOHDhw4MCBAwcOHDhw4MCBAwcOHDhw4MCBAwcOHDhw4MCBAwcOHDhw4MCBAwcOHDhw4MCBAwcOHDhw4MCBAwcOHDhw4MCBAwcOHDhw4MCBAwcOHDhw4MCBAwcOHDhw4MCBAwcOHDhw4MCBAwcOHDhw4MCBAwcOHDhw4MCBAwcOHDhw4MCBAwcOHDhw4MCBAwcOHDhw4MCBAwcOHDhw4MCBAwcOHDhw4MCBAwcOHDhw4MCBAwcOHDhw4MCBAwcOHDhw4MCBAwcOHDhw4MCBAwcOHDhw4MCBAwcOHDhw4MCBAwcOHDhw4MCBAwcOHDhw4MCBAwcOHDhw4MCBAwcOHDhw4MCBAwcOHDhw4MCBAwcOHDhw4MCBAwcOHDhw4MCBAwcOHDhw4MCBAwcOHDhw4MCBAwcOHDhw4MCBAwcOHDhw4MCBAwcOHDhw4MCBAwcOHDhw4MCBAwcOHDhw4MCBAwcOHDhw4MCBAwcOHDhw4MCBAwcOHDhw4MCBAwcOHDhw4MCBAwcOHDhw4MCBAwcOHDhw4MCBAwcOHDhw4MCBAwcOHDhw4MCBAwcOHDhw4MCBAwcOHDhw4MCBAwcOHDhw4MCBAwcOHDhw4MCBAwcOHDhw4MCBAwcOHDhw4MCBAwcOHDhw4MCBAwcOHDhw4MCBAwcOHDhw4MCBAwcOHDhw4MCBAwcOHDhw4MCBAwcOHDhw4MCBAwcOHDhw4MCBAwcOHDhw4MCBAwcOHDhw4MCBAwcOHDhw4MCBAwcOHDhw4MCBAwcOHDhw4MCBAwcOHDhw4MCBAwcOHDhw4MCBAwcOHDhw4MCBAwcOHDhw4MCBAwcOHDhw4MCBAwcOHDhw4MCBAwcOHDhw4MCBAwcOHDhw4MCBAwcOHDhw4MCBAwcOHDhw4MCBAwcOHDhw4MCBAwcOHDhw4MCBAwcOHDhw4MCBAwcOHDhw4MCBAwcOHDhw4MCBAwcOHDhw4MCBAwcOHDhw4MCBAwcOHDhw4MCBAwcOHDhw4MCBAwcOHDhw4MCBAwcOHDhw4MCBAwcOHDhw4MCBAwcOHDhw4MCBAwcOHDhw4MCBAwcOHDhw4MCBAwcOHDhw4MCBAwcOHDhw4MCBAwcOHDhw4MCBAwcOHDhw4MCBAwcOHDhw4MCBAwcOHDhw4MCBAwcOHDhw4MCBAwcOHDhw4MCBAwcOHDhw4MCBAwcOHDhw4MCBAwcOHDhw4MCBAwcOHDhw4MCBAwcOHDhw4MCBAwcOHDhw4MCBAwcOHDhw4MCBAwcOHDhw4MCBAwcOHDhw4MCBAwcOHDhw4MCBAwcOHDhw4MCBAwcOHDhw4MCBAwcOHDhw4MCBAwcOHDhw4MCBAwcOHDhw4MCBAwcOHDhw4MCBAwcOHDhw4MCBAwcOHDhw4MCBAwcOHDhw4MCBAwcOHDhw4MCBAwcOHDhw4MCBAwcOHDhw4MCBAwcOHDhw4MCBAwcOHDhw4MCBAwcOHDhw4MCBAwcOHDhw4MCBAwcOHDhw4MCBAwcOHDhw4MCBAwcOHDhw4MCBAwcOHDhw4MCBAwcOHDhw4MCBAwcOHDhw4MCBAwcOHDhw4MCBAwcOHDhw4MCBAwcOHDhw4MCBAwcOHDhw4MCBAwcOHDhw4MCBAwcOHDhw4MCBAwcOHDhw4MCBAwcOHDhw4MCBAwcOHDhw4MCBAwcOHDhw4MCBAwcOHDhw4MCBAwcOHDhw4MCBAwcOHDhw4MCBAwcOHDhw4MCBAwcOHDhw4MCBAwcOHDhw4MCBAwcOHDhw4MCBAwcOHDhw4MCBAwcOHDhw4MCBAwcOHDhw4MCBAwcOHDhw4MCBAwcOHDhw4MCBAwcOHDhw4MCBAwcOHDhw4MCBAwcOHDhw4MCBAwcOHDhw4MCBAwcOHDhw4MCBAwcOHDhw4MCBAwcOHDhw4MCBAwcOHDhw4MCBAwcOHDhw4MCBAwcOHDhw4MCBAwcOHDhw4MCBAwcOHDhw4MCBAwcOHDhw4MCBAwcOHDhw4MCBAwcOHDhw4MCBAwcOHDhw4MCBAwcOHDhw4MCBAwcOHDhw4MCBAwcOHDhw4MCBAwcOHDhw4MCBAwcOHDhw4MCBAwcOHDhw4MCBAwcOHDhw4MCBAwcOHDhw4MCBAwcOHDhw4MCBAwcOHDhw4MCBAwcOHDhw4MCBAwcOHDhw4MCBAwcOHDhw4MCBAwcOHDhw4MCBAwcOHDhw4MCBAwcOHDhw4MCBAwcOHDhw4MCBAwcOHDhw4MCBAwcOHDhw4MCBAwcOHDhw4MCBAwcOHDhw4MCBAwcOHDhw4MCBAwcOHDhw4MCBAwcOHDhw4MCBAwcOHDhw4MCBAwcOHDhw4MCBAwcOHDhw4MCBAwcOHDhw4MCBAwcOHDhw4MCBAwcOHDhw4MCBAwcOHDhw4MCBAwcOHDhw4MCBAwcOHDhw4MCBAwcOHDhw4MCBAwcOHDhw4MCBAwcOHDhw4MCBAwcOHDhw4MCBAwcOHDhw4MCBAwcOHDhw4MCBAwcOHDhw4MCBAwcOHDhw4MCBAwcOHDhw4MCBAwcOHDhw4MCBAwcOHDhw4MCBAwcOHDhw4MCBAwcOHDhw4MCBAwcOHDhw4MCBAwcOHDhw4MCBAwcOHDhw4MCBAwcOHDhw4MCBAwcOHDhw4MCBAwcOHDhw4MCBAwcOHDhw4MCBAwcOHDhw4MCBAwcOHDhw4MCBAwcOHDhw4MCBAwcOHDhw4MCBAwcOHDhw4MCBAwcOHDhw4MCBAwcOHDhw4MCBAwcOHDhw4MCBAwcOHDhw4MCBAwcOHDhw4MCBAwcOHDhw4MCBAwcOHDhw4MCBAwcOHDhw4MCBAwcOHDhw4MCBAwcOHDhw4MCBAwcOHDhw4MCBAwcOHDhw4MCBAwcOHDhw4MCBAwcOHDhw4MCBAwcOHDhw4MCBAwcOHDhw4MCBAwcOHDhw4MCBAwcOHDhw4MCBAwcOHDhw4MCBAwcOHDhw4MCBAwcOHDhw4MCBAwcOHDhw4MCBAwcOHDhw4MCBAwcOHDhw4MCBAwcOHDhw4MCBAwcOHDhw4MCBAwcOHDhw4MCBAwcOHDhw4MCBAwcOHDhw4MCBAwcOHDhw4MCBAwcOHDhw4MCBAwcOHDhw4MCBAwcOHDhw4MCBAwcOHDhw4MCBAwcOHDhw4MCBAwcOHDhw4MCBAwcOHDhw4MCBAwcOHDhw4MCBAwcOHDhw4MCBAwcOHDhw4MCBAwcOHDhw4MCBAwcOHDhw4MCBAwcOHDhw4MCBAwcOHDhw4MCBAwcOHDhw4MCBAwcOHDhw4MCBAwcOHDhw4MCBAwcOHDhw4MCBAwcOHDhw4MCBAwcOHDhw4MCBAwcOHDhw4MCBAwcOHDhw4MCBAwcOHDhw4MCBAwcOHDhw4MCBAwcOHDhw4MCBAwcOHDhw4MCBAwcOHDhw4MCBAwcOHDhw4MCBAwcOHDhw4MCBAwcOHDhw4MCBAwcOHDhw4MCBAwcOHDhw4MCBAwcOHDhw4MCBAwcOHDhw4MCBAwcOHDhw4MCBAwcOHDhw4MCBAwcOHDhw4MCBAwcOHDhw4MCBAwcOHDhw4MCBAwcOHDhw4MCBAwcOHDhw4MCBAwcOHDhw4MCBAwcOHDhw4MCBAwcOHDhw4MCBAwcOHDhw4MCBAwcOHDhw4MCBAwcOHDhw4MCBAwcOHDhw4MCBAwcOHDhw4MCBAwcOHDhw4MCBAwcOHDhw4MCBAwcOHDhw4MCBAwcOHDhw4MCBAwcOHDhw4MCBAwcOHDhw4MCBAwcOHDhw4MCBAwcOHDhw4MCBAwcOHDhw4MCBAwcOHDhw4MCBAwcOHDhw4MCBAwcOHDhw4MCBAwcOHDhw4MCBAwcOHDhw4MCBAwcOHDhw4MCBAwcOHDhw4MCBAwcOHDhw4MCBAwcOHDhw4MCBAwcOHDhw4MCBAwcOHDhw4MCBAwcOHDhw4MCBAwcOHDhw4MCBAwcOHDhw4MCBAwcOHDhw4MCBAwcOHDhw4MCBAwcOHDhw4MCBAwcOHDhw4MCBAwcOHDhw4MCBAwcOHDhw4MCBAwcOHDhw4MCBAwcOHDhw4MCBAwcOHDhw4MCBAwcOHDhw4MCBAwcOHDhw4MCBAwcOHDhw4MCBAwcOHDhw4MCBAwcOHDhw4MCBAwcOHDhw4MCBAwcOHDhw4MCBAwcOHDhw4MCBAwcOHDhw4MCBAwcOHDhw4MCBAwcOHDhw4MCBAwcOHDhw4MCBAwcOHDhw4MCBAwcOHDhw4MCBAwcOHDhw4MCBAwcOHDhw4MCBAwcOHDhw4MCBAwcOHDhw4MCBAwcOHDhw4MCBAwcOHDhw4MCBAwcOHDhw4MCBAwcOHDhw4MCBAwcOHDhw4MCBAwcOHDhw4MCBAwcOHDhw4MCBAwcOHDhw4MCBAwcOHDhw4MCBAwcOHDhw4MCBAwcOHDhw4MCBAwcOHDhw4MCBAwcOHDhw4MCBAwcOHDhw4MCBAwcOHDhw4MCBAwcOHDhw4MCBAwcOHDhw4MCBAwcOHDhw4MCBAwcOHDhw4MCBAwcOHDhw4MCBAwcOHDhw4MCBAwcOHDhw4MCBAwcOHDhw4MCBAwcOHDhw4MCBAwcOHDhw4MCBAwcOHDhw4MCBAwcOHDhw4MCBAwcOHDhw4MCBAwcOHDhw4MCBAwcOHDhw4MCBAwcOHDhw4MCBAwcOHDhw4MCBAwcOHDhw4MCBAwcOHDhw4MCBAwcOHDhw4MCBAwcOHDhw4MCBAwcOHDhw4MCBAwcOHDhw4MCBAwcOHDhw4MCBAwcOHDhw4MCBAwcOHDhw4MCBAwcOHDhw4MCBAwcOHDhw4MCBAwcOHDhw4MCBAwcOHDhw4MCBAwcOHDhw4MCBAwcOHDhw4MCBAwcOHDhw4MCBAwcOHDhw4MCBAwcOHDhw4MCBAwcOHDhw4MCBAwcOHDhw4MCBAwcOHDhw4MCBAwcOHDhw4MCBAwcOHDhw4MCBAwcOHDhw4MCBAwcOHDhw4MCBAwcOHDhw4MCBAwcOHDhw4MCBAwcOHDhw4MCBAwcOHDhw4MCBAwcOHDhw4MCBAwcOHDhw4MCBAwcOHDhw4MCBAwcOHDhw4MCBAwcOHDhw4MCBAwcOHDhw4MCBAwcOHDhw4MCBAwcOHDhw4MCBAwcOHDhw4MCBAwcOHDhw4MCBAwcOHDhw4MCBAwcOHDhw4MCBAwcOHDhw4MCBAwcOHDhw4MCBAwcOHDhw4MCBAwcOHDhw4MCBAwcOHDhw4MCBAwcOHDhw4MCBAwcOHDhw4MCBAwcOHDhw4MCBAwcOHDhw4MCBAwcOHDhw4MCBAwcOHDhw4MCBAwcOHDhw4MCBAwcOHDhw4MCBAwcOHDhw4MCBAwcOHDhw4MCBAwcOHDhw4MCBAwcOHDhw4MCBAwcOHDhw4MCBAwcOHDhw4MCBAwcOHDhw4MCBAwcOHDhw4MCBAwcOHDhw4MCBAwcOHDhw4MCBAwcOHDhw4MCBAwcOHDhw4MCBAwcOHDhw4MCBAwcOHDhw4MCBAwcOHDhw4MCBAwcOHDhw4MCBAwcOHDhw4MCBAwcOHDhw4MCBAwcOHDhw4MCBAwcOHDhw4MCBAwcOHDhw4MCBAwcOHDhw4MCBAwcOHDhw4MCBAwcOHDhw4MCBAwcOHDhw4MCBAwcOHDhw4MCBAwcOHDhw4MCBAwcOHDhw4MCBAwcOHDhw4MCBAwcOHDhw4MCBAwcOHDhw4MCBAwcOHDhw4MCBAwcOHDhw4MCBAwcOHDhw4MCBAwcOHDhw4MCBAwcOHDhw4MCBAwcOHDhw4MCBAwcOHDhw4MCBAwcOHDhw4MCBAwcOHDhw4MCBAwcOHDhw4MCBAwcOHDhw4MCBAwcOHDhw4MCBAwcOHDhw4MCBAwcOHDhw4MCBAwcOHDhw4MCBAwcOHDhw4MCBAwcOHDhw4MCBAwcOHDhw4MCBAwcOHDhw4MCBAwcOHDhw4MCBAwcOHDhw4MCBAwcOHDhw4MCBAwcOHDhw4MCBAwcOHDhw4MCBAwcOHDhw4MCBAwcOHDhw4MCBAwcOHDhw4MCBAwcOHDhw4MCBAwcOHDhw4MCBAwcOHDhw4MCBAwcOHDhw4MCBAwcOHDhw4MCBAwcOHDhw4MCBAwcOHDhw4MCBAwcOHDhw4MCBAwcOHDhw4MCBAwcOHDhw4MCBAwcOHDhw4MCBAwcOHDhw4MCBAwcOHDhw4MCBAwcOHDhw4MCBAwcOHDhw4MCBAwcOHDhw4MCBAwcOHDhw4MCBAwcOHDhw4MCBAwcOHDhw4MCBAwcOHDhw4MCBAwcOHDhw4MCBAwcOHDhw4MCBAwcOHDhw4MCBAwcOHDhw4MCBAwcOHDhw4MCBAwcOHDhw4MCBAwcOHDhw4MCBAwcOHDhw4MCBAwcOHDhw4MCBAwcOHDhw4MCBAwcOHDhw4MCBAwcOHDhw4MCBAwcOHDhw4MCBAwcOHDhw4MCBAwcOHDhw4MCBAwcOHDhw4MCBAwcOHDhw4MCBAwcOHDhw4MCBAwcOHDhw4MCBAwcOHDhw4MCBAwcOHDhw4MCBAwcOHDhw4MCBAwcOHDhw4MCBAwcOHDhw4MCBAwcOHDhw4MCBAwcOHDhw4MCBAwcOHDhw4MCBAwcOHDhw4MCBAwcOHDhw4MCBAwcOHDhw4MCBAwcOHDhw4MCBAwcOHDhw4MCBAwcOHDhw4MCBAwcOHDhw4MCBAwcOHDhw4MCBAwcOHDhw4MCBAwcOHDhw4MCBAwcOHDhw4MCBAwcOHDhw4MCBAwcOHDhw4MCBAwcOHDhw4MCBAwcOHDhw4MCBAwcOHDhw4MCBAwcOHDhw4MCBAwcOHDhw4MCBAwcOHDhw4MCBAwcOHDhw4MCBAwcOHDhw4MCBAwcOHDhw4MCBAwcOHDhw4MCBAwcOHDhw4MCBAwcOHDhw4MCBAwcOHDhw4MCBAwcOHDhw4MCBAwcOHDhw4MCBAwcOHDhw4MCBAwcOHDhw4MCBAwcOHDhw4MCBAwcOHDhw4MCBAwcOHDhw4MCBAwcOHDhw4MCBAwcOHDhw4MCBAwcOHDhw4MCBAwcOHDhw4MCBAwcOHDhw4MCBAwcOHDhw4MCBAwcOHDhw4MCBAwcOHDhw4MCBAwcOHDhw4MCBAwcOHDhw4MCBAwcOHDhw4MCBAwcOHDhw4MCBAwcOHDhw4MCBAwcOHDhw4MCBAwcOHDhw4MCBAwcOHDhw4MCBAwcOHDhw4MCBAwcOHDhw4MCBAwcOHDhw4MCBAwcOHDhw4MCBAwcOHDhw4MCBAwcOHDhw4MCBAwcOHDhw4MCBAwcOHDhw4MCBAwcOHDhw4MCBAwcOHDhw4MCBAwcOHDhw4MCBAwcOHDhw4MCBAwcOHDhw4MCBAwcOHDhw4MCBAwcOHDhw4MCBAwcOHDhw4MCBAwcOHDhw4MCBAwcOHDhw4MCBAwcOHDhw4MCBAwcOHDhw4MCBAwcOHDhw4MCBAwcOHDhw4MCBAwcOHDhw4MCBAwcOHDhw4MCBAwcOHDhw4MCBAwcOHDhw4MCBAwcOHDhw4MCBAwcOHDhw4MCBAwcOHDhw4MCBAwcOHDhw4MCBAwcOHDhw4MCBAwcOHDhw4MCBAwcOHDhw4MCBAwcOHDhw4MCBAwcOHDhw4MCBAwcOHDhw4MCBAwcOHDhw4MCBAwcOHDhw4MCBAwcOHDhw4MCBAwcOHDhw4MCBAwcOHDhw4MCBAwcOHDhw4MCBAwcOHDhw4MCBAwcOHDhw4MCBAwcOHDhw4MCBAwcOHDhw4MCBAwcOHDhw4MCBAwcOHDhw4MCBAwcOHDhw4MCBAwcOHDhw4MCBAwcOHDhw4MCBAwcOHDhw4MCBAwcOHDhw4MCBAwcOHDhw4MCBAwcOHDhw4MCBAwcOHDhw4MCBAwcOHDhw4MCBAwcOHDhw4MCBAwcOHDhw4MCBAwcOHDhw4MCBAwcOHDhw4MCBAwcOHDhw4MCBAwcOHDhw4MCBAwcOHDhw4MCBAwcOHDhw4MCBAwcOHDhw4MCBAwcOHDhw4MCBAwcOHDhw4MCBAwcOHDhw4MCBAwcOHDhw4MCBAwcOHDhw4MCBAwcOHDhw4MCBAwcOHDhw4MCBAwcOHDhw4MCBAwcOHDhw4MCBAwcOHDhw4MCBAwcOHDhw4MCBAwcOHDhw4MCBAwcOHDhw4MCBAwcOHDhw4MCBAwcOHDhw4MCBAwcOHDhw4MCBAwcOHDhw4MCBAwcOHDhw4MCBAwcOHDhw4MCBAwcOHDhw4MCBAwcOHDhw4MCBAwcOHDhw4MCBAwcOHDhw4MCBAwcOHDhw4MCBAwcOHDhw4MCBAwcOHDhw4MCBAwcOaIeOBQAAAAAG+VvPYlchZMCAAQMGDBgwYMCAAQMGDBgwYMCAAQMGDBgwYMCAAQMGDBgwYMCAAQMGDBgwYMCAAQMGDBgwYMCAAQMGDBgwYMCAAQMGDBgwYMCAAQMGDBgwYMCAAQMGDBgwYMCAAQMGDBgwYMCAAQMGDBgwYMCAAQMGDBgwYMCAAQMGDBgwYMCAAQMGDBgwYMCAAQMGDBgwYMCAAQMGDBgwYMCAAQMGDBgwYMCAAQMGDBgwYMCAAQMGDBgwYMCAAQMGDBgwYMCAAQMGDBgwYMCAAQMGDBgwYMCAAQMGDBgwYMCAAQMGDBgwYMCAAQMGDBgwYMCAAQMGDBgwYMCAAQMGDBgwYMCAAQMGDBgwYMCAAQMGDBgwYMCAAQMGDBgwYMCAAQMGDBgwYMCAAQMGDBgwYMCAAQMGDBgwYMCAAQMGDBgwYMCAAQMGDBgwYMCAAQMGDBgwYMCAAQMGDBgwYMCAAQMGDBgwYMCAAQMGDBgwYMCAAQMGDBgwYMCAAQMGDBgwYMCAAQMGDBgwYMCAAQMGDBgwYMCAAQMGDBgwYMCAAQMGDBgwYMCAAQMGDBgwYMCAAQMGDBgwYMCAAQMGDBgwYMCAAQMGDBgwYMCAAQMGDBgwYMCAAQMGDBgwYMCAAQMGDBgwYMCAAQMGDBgwYMCAAQMGDBgwYMCAAQMGDBgwYMCAAQMGDBgwYMCAAQMGDBgwYMCAAQMGDBgwYMCAAQMGDBgwYMCAAQMGDBgwYMCAAQMGDBgwYMCAAQMGDBgwYMCAAQMGDBgwYMCAAQMGDBgwYMCAAQMGDBgwYMCAAQMGDBgwYMCAAQMGDBgwYMCAAQMGDBgwYMCAAQMGDBgwYMCAAQMGDBgwYMCAAQMGDBgwYMCAAQMGDBgwYMCAAQMGDBgwYMCAAQMGDBgwYMCAAQMGDBgwYMCAAQMGDBgwYMCAAQMGDBgwYMCAAQMGDBgwYMCAAQMGDBgwYMCAAQMGDBgwYMCAAQMGDBgwYMCAAQMGDBgwYMCAAQMGDBgwYMCAAQMGDBgwYMCAAQMGDBgwYMCAAQMGDBgwYMCAAQMGDBgwYMCAAQMGDBgwYMCAAQMGDBgwYMCAAQMGDBgwYMCAAQMGDBgwYMCAAQMGDBgwYMCAAQMGDBgwYMCAAQMGDBgwYMCAAQMGDBgwYMCAAQMGDBgwYMCAAQMGDBgwYMCAAQMGDBgwYMCAAQMGDBgwYMCAAQMGDBgwYMCAAQMGDBgwYMCAAQMGDBgwYMCAAQMGDBgwYMCAAQMGDBgwYMCAAQMGDBgwYMCAAQMGDBgwYMCAAQMGDBgwYMCAAQMGDBgwYMCAAQMGDBgwYMCAAQMGDBgwYMCAAQMGDBgwYMCAAQMGDBgwYMCAAQMGDBgwYMCAAQMGDBgwYMCAAQMGDBgwYMCAAQMGDBgwYMCAAQMGDBgwYMCAAQMGDBgwYMCAAQMGDBgwYMCAAQMGDBgwYMCAAQMGDBgwYMCAAQMGDBgwYMCAAQMGDBgwYMCAAQMGDBgwYMCAAQMGDBgwYMCAAQMGDBgwYMCAAQMGDBgwYMCAAQMGDBgwYMCAAQMGDBgwYMCAAQMGDBgwYMCAAQMGDBgwYMCAAQMGDBgwYMCAAQMGDBgwYMCAAQMGDBgwYMCAAQMGDBgwYMCAAQMGDBgwYMCAAQMGDBgwYMCAAQMGDBgwYMCAAQMGDBgwYMCAAQMGDBgwYMCAAQMGDBgwYMCAAQMGDBgwYMCAAQMGDBgwYMCAAQMGDBgwYMCAAQMGDBgwYMCAAQMGDBgwYMCAAQMGDBgwYMCAAQMGDBgwYMCAAQMGDBgwYMCAAQMGDBgwYMCAAQMGDBgwYMCAAQMGDBgwYMCAAQMGDBgwYMCAAQMGDBgwYMCAAQMGDBgwYMCAAQMGDBgwYMCAAQMGDBgwYMCAAQMGDBgwYMCAAQMGDBgwYMCAAQMGDBgwYMCAAQMGDBgwYMCAAQMGDBgwYMCAAQMGDBgwYMCAAQMGDBgwYMCAAQMGDBgwYMCAAQMGDBgwYMCAAQMGDBgwYMCAAQMGDBgwYMCAAQMGDBgwYMCAAQMGDBgwYMCAAQMGDBgwYMCAAQMGDBgwYMCAAQMGDBgwYMCAAQMGDBgwYMCAAQMGDBgwYMCAAQMGDBgwYMCAAQMGDBgwYMCAAQMGDBgwYMCAAQMGDBgwYMCAAQMGDBgwYMCAAQMGDBgwYMCAAQMGDBgwYMCAAQMGDBgwYMCAAQMGDBgwYMCAAQMGDBgwYMCAAQMGDBgwYMCAAQMGDBgwYMCAAQMGDBgwYMCAAQMGDBgwYMCAAQMGDBgwYMCAAQMGDBgwYMCAAQMGDBgwYMCAAQMGDBgwYMCAAQMGDBgwYMCAAQMGDBgwYMCAAQMGDBgwYMCAAQMGDBgwYMCAAQMGDBgwYMCAAQMGDBgwYMCAAQMGDBgwYMCAAQMGDBgwYMCAAQMGDBgwYMCAAQMGDBgwYMCAAQMGDBgwYMCAAQMGDBgwYMCAAQMGDBgwYMCAAQMGDBgwYMCAAQMGDBgwYMCAAQMGDBgwYMCAAQMGDBgwYMCAAQMGDBgwYMCAAQMGDBgwYMCAAQMGDBgwYMCAAQMGDBgwYMCAAQMGDBgwYMCAAQMGDBgwYMCAAQMGDBgwYMCAAQMGDBgwYMCAAQMGDBgwYMCAAQMGDBgwYMCAAQMGDBgwYMCAAQMGDBgwYMCAAQMGDBgwYMCAAQMGDBgwYMCAAQMGDBgwYMCAAQMGDBgwYMCAAQMGDBgwYMCAAQMGDBgwYMCAAQMGDBgwYMCAAQMGDBgwYMCAAQMGDBgwYMCAAQMGDBgwYMCAAQMGDBgwYMCAAQMGDBgwYMCAAQMGDBgwYMCAAQMGDBgwYMCAAQMGDBgwYMCAAQMGDBgwYMCAAQMGDBgwYMCAAQMGDBgwYMCAAQMGDBgwYMCAAQMGDBgwYMCAAQMGDBgwYMCAAQMGDBgwYMCAAQMGDBgwYMCAAQMGDBgwYMCAAQMGDBgwYMCAAQMGDBgwYMCAAQMGDBgwYMCAAQMGDBgwYMCAAQMGDBgwYMCAAQMGDBgwYMCAAQMGDBgwYMCAAQMGDBgwYMCAAQMGDBgwYMCAAQMGDBgwYMCAAQMGDBgwYMCAAQMGDBgwYMCAAQMGDBgwYMCAAQMGDBgwYMCAAQMGDBgwYMCAAQMGDBgwYMCAAQMGDBgwYMCAAQMGDBgwYMCAAQMGDBgwYMCAAQMGDBgwYMCAAQMGDBgwYMCAAQMGDBgwYMCAAQMGDBgwYMCAAQMGDBgwYMCAAQMGDBgwYMCAAQMGDBgwYMCAAQMGDBgwYMCAAQMGDBgwYMCAAQMGDBgwYMCAAQMGDBgwYMCAAQMGDBgwYMCAAQMGDBgwYMCAAQMGDBgwYMCAAQMGDBgwYMCAAQMGDBgwYMCAAQMGDBgwYMCAAQMGDBgwYMCAAQMGDBgwYMCAAQMGDBgwYMCAAQMGDBgwYMCAAQMGDBgwYMCAAQMGDBgwYMCAAQMGDBgwYMCAAQMGDBgwYMCAAQMGDBgwYMCAAQMGDBgwYMCAAQMGDBgwYMCAAQMGDBgwYMCAAQMGDBgwYMCAAQMGDBgwYMCAAQMGDBgwYMCAAQMGDBgwYMCAAQMGDBgwYMCAAQMGDBgwYMCAAQMGDBgwYMCAAQMGDBgwYMCAAQMGDBgwYMCAAQMGDBgwYMCAAQMGDBgwYMCAAQMGDBgwYMCAAQMGDBgwYMCAAQMGDBgwYMCAAQMGDBgwYMCAAQMGDBgwYMCAAQMGDBgwYMCAAQMGDBgwYMCAAQMGDBgwYMCAAQMGDBgwYMCAAQMGDBgwYMCAAQMGDBgwYMCAAQMGDBgwYMCAAQMGDBgwYMCAAQMGDBgwYMCAAQMGDBgwYMCAAQMGDBgwYMCAAQMGDBgwYMCAAQMGDBgwYMCAAQMGDBgwYMCAAQMGDBgwYMCAAQMGDBgwYMCAAQMGDBgwYMCAAQMGDBgwYMCAAQMGDBgwYMCAAQMGDBgwYMCAAQMGDBgwYMCAAQMGDBgwYMCAAQMGDBgwYMCAAQMGDBgwYMCAAQMGDBgwYMCAAQMGDBgwYMCAAQMGDBgwYMCAAQMGDBgwYMCAAQMGDBgwYMCAAQMGDBgwYMCAAQMGDBgwYMCAAQMGDBgwYMCAAQMGDBgwYMCAAQMGDBgwYMCAAQMGDBgwYMCAAQMGDBgwYMCAAQMGDBgwYMCAAQMGDBgwYMCAAQMGDBgwYMCAAQMGDBgwYMCAAQMGDBgwYMCAAQMGDBgwYMCAAQMGDBgwYMCAAQMGDBgwYMCAAQMGDBgwYMCAAQMGDBgwYMCAAQMGDBgwYMCAAQMGDBgwYMCAAQMGDBgwYMCAAQMGDBgwYMCAAQMGDBgwYMCAAQMGDBgwYMCAAQMGDBgwYMCAAQMGDBgwYMCAAQMGDBgwYMCAAQMGDBgwYMCAAQMGDBgwYMCAAQMGDBgwYMCAAQMGDBgwYMCAAQMGDBgwYMCAAQMGDBgwYMCAAQMGDBgwYMCAAQMGDBgwYMCAAQMGDBgwYMCAAQMGDBgwYMCAAQMGDBgwYMCAAQMGDBgwYMCAAQMGDBgwYMCAAQMGDBgwYMCAAQMGDBgwYMCAAQMGDBgwYMCAAQMGDBgwYMCAAQMGDBgwYMCAAQMGDBgwYMCAAQMGDBgwYMCAAQMGDBgwYMCAAQMGDKwDAbp4QZzNv/6xAAAAAElFTkSuQmCC;clipPath=inset(14.63% 50% 69.21% 42%);" parent="1" vertex="1">
          <mxGeometry x="95.08999999999999" y="196.96" width="62.298838151850845" height="96.07" as="geometry" />
        </mxCell>
      </root>
    </mxGraphModel>
  </diagram>
</mxfile>
